<mxfile host="65bd71144e" pages="3">
    <diagram id="yArKEzquSE3qU4hALgER" name="Requirements">
        <mxGraphModel dx="3542" dy="-1787" grid="0" gridSize="10" guides="1" tooltips="1" connect="1" arrows="1" fold="1" page="1" pageScale="1" pageWidth="850" pageHeight="1100" math="0" shadow="0">
            <root>
                <mxCell id="0"/>
                <mxCell id="1" parent="0"/>
                <mxCell id="ILAQhi6HJ7L6skhEG0P3-1" value="&lt;p style=&quot;margin:0px;margin-top:4px;margin-left:7px;text-align:left;&quot;&gt;&lt;b&gt;req &lt;/b&gt;[Package]&lt;b&gt; &lt;/b&gt;[Donation Tracker System Requiremetns]&lt;/p&gt;" style="html=1;shape=mxgraph.sysml.package;overflow=fill;labelX=316.67;strokeWidth=2;align=center;" parent="1" vertex="1">
                    <mxGeometry x="-2336" y="3240" width="1968" height="1246" as="geometry"/>
                </mxCell>
                <mxCell id="Pzw7nNcND0kRklFvFOgV-1" value="User" style="shape=umlActor;verticalLabelPosition=bottom;verticalAlign=top;html=1;outlineConnect=0;" parent="1" vertex="1">
                    <mxGeometry x="-2526" y="3800" width="60" height="100" as="geometry"/>
                </mxCell>
                <mxCell id="Pzw7nNcND0kRklFvFOgV-2" value="&amp;lt;&amp;lt;trace&amp;gt;&amp;gt;" style="edgeStyle=none;html=1;endArrow=open;endSize=12;dashed=1;verticalAlign=bottom;rounded=0;exitX=0;exitY=0.491;exitDx=0;exitDy=0;exitPerimeter=0;" parent="1" source="ILAQhi6HJ7L6skhEG0P3-1" target="Pzw7nNcND0kRklFvFOgV-1" edge="1">
                    <mxGeometry width="160" relative="1" as="geometry">
                        <mxPoint x="-2368" y="3850" as="sourcePoint"/>
                        <mxPoint x="-1916" y="3823" as="targetPoint"/>
                    </mxGeometry>
                </mxCell>
                <mxCell id="Pzw7nNcND0kRklFvFOgV-47" value="" style="group" parent="1" vertex="1" connectable="0">
                    <mxGeometry x="-2308" y="3280" width="1840" height="1140" as="geometry"/>
                </mxCell>
                <mxCell id="JpJYAk7kGCK7lJFS0bpi-3" value="&amp;lt;&amp;lt;requirement&amp;gt;&amp;gt;&lt;br&gt;&lt;b&gt;Online Donation Tracker&lt;/b&gt;" style="shape=rect;html=1;whiteSpace=wrap;align=center;" parent="Pzw7nNcND0kRklFvFOgV-47" vertex="1">
                    <mxGeometry x="1287.5" width="140" height="60" as="geometry"/>
                </mxCell>
                <mxCell id="JpJYAk7kGCK7lJFS0bpi-4" value="&amp;lt;&amp;lt;requirement&amp;gt;&amp;gt;&lt;br&gt;&lt;b&gt;Functional Requirements&lt;/b&gt;" style="shape=rect;html=1;whiteSpace=wrap;align=center;" parent="Pzw7nNcND0kRklFvFOgV-47" vertex="1">
                    <mxGeometry x="1108" y="141" width="120" height="60" as="geometry"/>
                </mxCell>
                <mxCell id="JpJYAk7kGCK7lJFS0bpi-5" value="&amp;lt;&amp;lt;requirement&amp;gt;&amp;gt;&lt;br&gt;&lt;b&gt;Non-Functional Requirements&lt;/b&gt;" style="shape=rect;html=1;whiteSpace=wrap;align=center;" parent="Pzw7nNcND0kRklFvFOgV-47" vertex="1">
                    <mxGeometry x="1665" y="150" width="120" height="60" as="geometry"/>
                </mxCell>
                <mxCell id="JpJYAk7kGCK7lJFS0bpi-6" value="" style="rounded=0;html=1;labelBackgroundColor=none;endArrow=none;edgeStyle=elbowEdgeStyle;elbow=vertical;startArrow=sysMLPackCont;startSize=12;" parent="Pzw7nNcND0kRklFvFOgV-47" source="JpJYAk7kGCK7lJFS0bpi-3" target="JpJYAk7kGCK7lJFS0bpi-4" edge="1">
                    <mxGeometry relative="1" as="geometry"/>
                </mxCell>
                <mxCell id="JpJYAk7kGCK7lJFS0bpi-7" value="" style="rounded=0;html=1;labelBackgroundColor=none;endArrow=none;edgeStyle=elbowEdgeStyle;elbow=vertical;startArrow=sysMLPackCont;startSize=12;" parent="Pzw7nNcND0kRklFvFOgV-47" source="JpJYAk7kGCK7lJFS0bpi-3" target="JpJYAk7kGCK7lJFS0bpi-5" edge="1">
                    <mxGeometry relative="1" as="geometry">
                        <Array as="points">
                            <mxPoint x="1540" y="100"/>
                        </Array>
                    </mxGeometry>
                </mxCell>
                <mxCell id="WjRAYZnWuuN52-Zl4NBK-5" value="&lt;p style=&quot;margin:0px;margin-top:4px;text-align:center;&quot;&gt;&amp;lt;&amp;lt;requirement&amp;gt;&amp;gt;&lt;br&gt;&lt;b&gt;Login&lt;/b&gt;&lt;/p&gt;&lt;hr&gt;&lt;p&gt;&lt;/p&gt;&lt;p style=&quot;margin:0px;margin-left:8px;text-align:left;&quot;&gt;text=&quot;Secure authentication&quot;&lt;br&gt;Id=&quot;62j32.&quot;&lt;/p&gt;" style="shape=rect;overflow=fill;html=1;whiteSpace=wrap;align=center;" parent="Pzw7nNcND0kRklFvFOgV-47" vertex="1">
                    <mxGeometry x="1068" y="650" width="200" height="100" as="geometry"/>
                </mxCell>
                <mxCell id="WjRAYZnWuuN52-Zl4NBK-6" value="&lt;p style=&quot;margin:0px;margin-top:4px;text-align:center;&quot;&gt;&amp;lt;&amp;lt;requirement&amp;gt;&amp;gt;&lt;br&gt;&lt;b&gt;User Authentication&lt;/b&gt;&lt;/p&gt;&lt;hr&gt;&lt;p&gt;&lt;/p&gt;&lt;p style=&quot;margin:0px;margin-left:8px;text-align:left;&quot;&gt;text=&quot;Secure authentication&quot;&lt;br&gt;Id=&quot;62j32.&quot;&lt;/p&gt;" style="shape=rect;overflow=fill;html=1;whiteSpace=wrap;align=center;" parent="Pzw7nNcND0kRklFvFOgV-47" vertex="1">
                    <mxGeometry x="1068" y="440" width="200" height="100" as="geometry"/>
                </mxCell>
                <mxCell id="WjRAYZnWuuN52-Zl4NBK-14" value="&amp;lt;&amp;lt;verify&amp;gt;&amp;gt;" style="endArrow=open;edgeStyle=none;endSize=12;dashed=1;html=1;rounded=0;exitX=0.5;exitY=0;exitDx=0;exitDy=0;entryX=0.25;entryY=1;entryDx=0;entryDy=0;" parent="Pzw7nNcND0kRklFvFOgV-47" source="WjRAYZnWuuN52-Zl4NBK-15" target="WjRAYZnWuuN52-Zl4NBK-5" edge="1">
                    <mxGeometry relative="1" as="geometry">
                        <mxPoint x="1261.5" y="780" as="sourcePoint"/>
                        <mxPoint x="1381.5" y="780" as="targetPoint"/>
                        <mxPoint as="offset"/>
                        <Array as="points"/>
                    </mxGeometry>
                </mxCell>
                <mxCell id="WjRAYZnWuuN52-Zl4NBK-15" value="&lt;p style=&quot;margin:0px;margin-top:4px;text-align:center;&quot;&gt;&amp;lt;&amp;lt;testCase&amp;gt;&amp;gt;&lt;br&gt;&lt;b&gt;Verify Login Error Message&lt;/b&gt;&lt;/p&gt;&lt;hr&gt;Verify that login features displays an error message when the entered credentials are incorrect&lt;p&gt;&lt;/p&gt;" style="shape=rect;overflow=fill;html=1;whiteSpace=wrap;align=center;" parent="Pzw7nNcND0kRklFvFOgV-47" vertex="1">
                    <mxGeometry x="1019" y="1040" width="200" height="100" as="geometry"/>
                </mxCell>
                <mxCell id="WjRAYZnWuuN52-Zl4NBK-16" value="&lt;p style=&quot;margin:0px;margin-top:4px;text-align:center;&quot;&gt;&amp;lt;&amp;lt;requirement&amp;gt;&amp;gt;&lt;br&gt;&lt;b&gt;Logout&lt;/b&gt;&lt;/p&gt;&lt;hr&gt;&lt;p&gt;&lt;/p&gt;&lt;p style=&quot;margin:0px;margin-left:8px;text-align:left;&quot;&gt;text=&quot;User session termination&quot;&lt;br&gt;Id=&quot;62j32.&quot;&lt;/p&gt;" style="shape=rect;overflow=fill;html=1;whiteSpace=wrap;align=center;" parent="Pzw7nNcND0kRklFvFOgV-47" vertex="1">
                    <mxGeometry x="1389" y="690" width="200" height="100" as="geometry"/>
                </mxCell>
                <mxCell id="WjRAYZnWuuN52-Zl4NBK-19" value="&amp;lt;&amp;lt;depends on&amp;gt;&amp;gt;" style="endArrow=open;edgeStyle=none;endSize=12;dashed=1;html=1;rounded=0;entryX=0.75;entryY=1;entryDx=0;entryDy=0;exitX=0.5;exitY=0;exitDx=0;exitDy=0;" parent="Pzw7nNcND0kRklFvFOgV-47" source="WjRAYZnWuuN52-Zl4NBK-16" target="WjRAYZnWuuN52-Zl4NBK-6" edge="1">
                    <mxGeometry relative="1" as="geometry">
                        <mxPoint x="1416.5" y="840" as="sourcePoint"/>
                        <mxPoint x="1536.5" y="840" as="targetPoint"/>
                    </mxGeometry>
                </mxCell>
                <mxCell id="WjRAYZnWuuN52-Zl4NBK-20" value="&amp;lt;&amp;lt;depends on&amp;gt;&amp;gt;" style="endArrow=open;edgeStyle=none;endSize=12;dashed=1;html=1;rounded=0;exitX=0.5;exitY=0;exitDx=0;exitDy=0;entryX=0.5;entryY=1;entryDx=0;entryDy=0;" parent="Pzw7nNcND0kRklFvFOgV-47" source="WjRAYZnWuuN52-Zl4NBK-5" target="WjRAYZnWuuN52-Zl4NBK-6" edge="1">
                    <mxGeometry relative="1" as="geometry">
                        <mxPoint x="1506.5" y="790" as="sourcePoint"/>
                        <mxPoint x="1114" y="540" as="targetPoint"/>
                    </mxGeometry>
                </mxCell>
                <mxCell id="WjRAYZnWuuN52-Zl4NBK-21" value="&amp;lt;&amp;lt;depends on&amp;gt;&amp;gt;" style="endArrow=open;edgeStyle=none;endSize=12;dashed=1;html=1;rounded=0;entryX=0.5;entryY=1;entryDx=0;entryDy=0;" parent="Pzw7nNcND0kRklFvFOgV-47" source="WjRAYZnWuuN52-Zl4NBK-6" target="WjRAYZnWuuN52-Zl4NBK-36" edge="1">
                    <mxGeometry relative="1" as="geometry">
                        <mxPoint x="1506.5" y="790" as="sourcePoint"/>
                        <mxPoint x="1326.5" y="550" as="targetPoint"/>
                    </mxGeometry>
                </mxCell>
                <mxCell id="WjRAYZnWuuN52-Zl4NBK-22" value="&lt;p style=&quot;margin:0px;margin-top:4px;text-align:center;&quot;&gt;&amp;lt;&amp;lt;requirement&amp;gt;&amp;gt;&lt;br&gt;&lt;b&gt;Session Termination&lt;/b&gt;&lt;/p&gt;&lt;hr&gt;&lt;p&gt;&lt;/p&gt;&lt;p style=&quot;margin:0px;margin-left:8px;text-align:left;&quot;&gt;text=&quot;Trigger session termination&quot;&lt;br&gt;Id=&quot;62j32.&quot;&lt;/p&gt;" style="shape=rect;overflow=fill;html=1;whiteSpace=wrap;align=center;" parent="Pzw7nNcND0kRklFvFOgV-47" vertex="1">
                    <mxGeometry x="1389" y="910" width="200" height="100" as="geometry"/>
                </mxCell>
                <mxCell id="WjRAYZnWuuN52-Zl4NBK-23" value="&amp;lt;&amp;lt;triggers&amp;gt;&amp;gt;" style="endArrow=open;edgeStyle=none;endSize=12;dashed=1;html=1;rounded=0;entryX=0.5;entryY=1;entryDx=0;entryDy=0;exitX=0.5;exitY=0;exitDx=0;exitDy=0;" parent="Pzw7nNcND0kRklFvFOgV-47" source="WjRAYZnWuuN52-Zl4NBK-22" target="WjRAYZnWuuN52-Zl4NBK-16" edge="1">
                    <mxGeometry relative="1" as="geometry">
                        <mxPoint x="1506.5" y="790" as="sourcePoint"/>
                        <mxPoint x="1426.5" y="690" as="targetPoint"/>
                        <mxPoint as="offset"/>
                    </mxGeometry>
                </mxCell>
                <mxCell id="WjRAYZnWuuN52-Zl4NBK-25" value="&lt;p style=&quot;margin:0px;margin-top:4px;text-align:center;&quot;&gt;&amp;lt;&amp;lt;requirement&amp;gt;&amp;gt;&lt;br&gt;&lt;b&gt;Authentication Process&lt;/b&gt;&lt;/p&gt;&lt;hr&gt;&lt;p&gt;&lt;/p&gt;&lt;p style=&quot;margin:0px;margin-left:8px;text-align:left;&quot;&gt;text=&quot;Call authentication process&quot;&lt;br&gt;Id=&quot;62j32.&quot;&lt;/p&gt;" style="shape=rect;overflow=fill;html=1;whiteSpace=wrap;align=center;" parent="Pzw7nNcND0kRklFvFOgV-47" vertex="1">
                    <mxGeometry x="1170" y="910" width="200" height="100" as="geometry"/>
                </mxCell>
                <mxCell id="WjRAYZnWuuN52-Zl4NBK-35" value="" style="rounded=0;html=1;labelBackgroundColor=none;endArrow=none;edgeStyle=elbowEdgeStyle;elbow=vertical;startArrow=sysMLPackCont;startSize=12;exitX=0.5;exitY=1;exitDx=0;exitDy=0;entryX=0.5;entryY=0;entryDx=0;entryDy=0;" parent="Pzw7nNcND0kRklFvFOgV-47" source="JpJYAk7kGCK7lJFS0bpi-5" target="OoxvD-jqSRTl4bafbZzo-2" edge="1">
                    <mxGeometry relative="1" as="geometry">
                        <mxPoint x="1412.5" y="220" as="sourcePoint"/>
                        <mxPoint x="1682.5" y="310" as="targetPoint"/>
                    </mxGeometry>
                </mxCell>
                <mxCell id="WjRAYZnWuuN52-Zl4NBK-36" value="&lt;p style=&quot;margin:0px;margin-top:4px;text-align:center;&quot;&gt;&amp;lt;&amp;lt;requirement&amp;gt;&amp;gt;&lt;br&gt;&lt;b&gt;SignUp&lt;/b&gt;&lt;/p&gt;&lt;hr&gt;&lt;p&gt;&lt;/p&gt;&lt;p style=&quot;margin:0px;margin-left:8px;text-align:left;&quot;&gt;text=&quot;User registration functionality&quot;&lt;br&gt;Id=&quot;62j32.&quot;&lt;/p&gt;" style="shape=rect;overflow=fill;html=1;whiteSpace=wrap;align=center;" parent="Pzw7nNcND0kRklFvFOgV-47" vertex="1">
                    <mxGeometry x="1068" y="280" width="200" height="90" as="geometry"/>
                </mxCell>
                <mxCell id="WjRAYZnWuuN52-Zl4NBK-37" value="" style="rounded=0;html=1;labelBackgroundColor=none;endArrow=none;edgeStyle=elbowEdgeStyle;elbow=vertical;startArrow=sysMLPackCont;startSize=12;exitX=0.5;exitY=1;exitDx=0;exitDy=0;" parent="Pzw7nNcND0kRklFvFOgV-47" source="JpJYAk7kGCK7lJFS0bpi-4" target="WjRAYZnWuuN52-Zl4NBK-36" edge="1">
                    <mxGeometry relative="1" as="geometry">
                        <mxPoint x="1306.5" y="340" as="sourcePoint"/>
                        <mxPoint x="1316.5" y="290" as="targetPoint"/>
                    </mxGeometry>
                </mxCell>
                <mxCell id="WjRAYZnWuuN52-Zl4NBK-38" value="&lt;p style=&quot;margin:0px;margin-top:4px;text-align:center;&quot;&gt;&amp;lt;&amp;lt;requirement&amp;gt;&amp;gt;&lt;br&gt;&lt;b&gt;Any users can view funding need in detail page without authentication&lt;/b&gt;&lt;/p&gt;&lt;hr&gt;&lt;p&gt;&lt;/p&gt;&lt;p style=&quot;margin:0px;margin-left:8px;text-align:left;&quot;&gt;text=&quot;Allow any user on the internet can view funding needs in detail&quot;&lt;br&gt;Id=&quot;62j32.&quot;&lt;/p&gt;" style="shape=rect;overflow=fill;html=1;whiteSpace=wrap;align=center;" parent="Pzw7nNcND0kRklFvFOgV-47" vertex="1">
                    <mxGeometry x="1625" y="730" width="200" height="130" as="geometry"/>
                </mxCell>
                <mxCell id="OoxvD-jqSRTl4bafbZzo-2" value="&lt;p style=&quot;margin:0px;margin-top:4px;text-align:center;&quot;&gt;&amp;lt;&amp;lt;requirement&amp;gt;&amp;gt;&lt;br&gt;&lt;b&gt;Browse funding needs list on the landing page without authentication&amp;nbsp;&lt;/b&gt;&lt;/p&gt;&lt;hr&gt;&lt;p&gt;&lt;/p&gt;&lt;p style=&quot;margin:0px;margin-left:8px;text-align:left;&quot;&gt;text=&quot;Users can browse/view a list of funding needs on the landing page&quot;&lt;br&gt;Id=&quot;62j32.&quot;&lt;/p&gt;" style="shape=rect;overflow=fill;html=1;whiteSpace=wrap;align=center;" parent="Pzw7nNcND0kRklFvFOgV-47" vertex="1">
                    <mxGeometry x="1610" y="450" width="230" height="130" as="geometry"/>
                </mxCell>
                <mxCell id="OoxvD-jqSRTl4bafbZzo-8" value="&amp;lt;&amp;lt;refine&amp;gt;&amp;gt;" style="endArrow=open;edgeStyle=none;endSize=12;dashed=1;html=1;rounded=0;entryX=0.5;entryY=1;entryDx=0;entryDy=0;exitX=0.5;exitY=0;exitDx=0;exitDy=0;" parent="Pzw7nNcND0kRklFvFOgV-47" source="WjRAYZnWuuN52-Zl4NBK-38" target="OoxvD-jqSRTl4bafbZzo-2" edge="1">
                    <mxGeometry x="-0.0035" relative="1" as="geometry">
                        <mxPoint x="1577.5" y="720" as="sourcePoint"/>
                        <mxPoint x="2092.5" y="500" as="targetPoint"/>
                        <mxPoint as="offset"/>
                    </mxGeometry>
                </mxCell>
                <mxCell id="OoxvD-jqSRTl4bafbZzo-9" value="&amp;lt;&amp;lt;refine&amp;gt;&amp;gt;" style="endArrow=open;edgeStyle=none;endSize=12;dashed=1;html=1;rounded=0;exitX=-0.003;exitY=0.587;exitDx=0;exitDy=0;entryX=1.027;entryY=0.855;entryDx=0;entryDy=0;entryPerimeter=0;exitPerimeter=0;" parent="Pzw7nNcND0kRklFvFOgV-47" source="OoxvD-jqSRTl4bafbZzo-2" target="Pzw7nNcND0kRklFvFOgV-19" edge="1">
                    <mxGeometry x="-0.0035" relative="1" as="geometry">
                        <mxPoint x="2147.5" y="720" as="sourcePoint"/>
                        <mxPoint x="2075" y="800" as="targetPoint"/>
                        <mxPoint as="offset"/>
                        <Array as="points">
                            <mxPoint x="1520" y="410"/>
                            <mxPoint x="1030" y="410"/>
                            <mxPoint x="1030" y="526"/>
                        </Array>
                    </mxGeometry>
                </mxCell>
                <mxCell id="Pzw7nNcND0kRklFvFOgV-3" value="&lt;p style=&quot;margin:0px;margin-top:4px;text-align:center;&quot;&gt;&amp;lt;&amp;lt;requirement&amp;gt;&amp;gt;&lt;br&gt;&lt;b&gt;Funding Need Management&lt;/b&gt;&lt;/p&gt;&lt;hr&gt;&lt;p&gt;&lt;/p&gt;&lt;p style=&quot;margin:0px;margin-left:8px;text-align:left;&quot;&gt;text=&quot;Logged-users can manage their created funding needs&quot;&lt;br&gt;Id=&quot;62j32.&quot;&lt;/p&gt;" style="shape=rect;overflow=fill;html=1;whiteSpace=wrap;align=center;" parent="Pzw7nNcND0kRklFvFOgV-47" vertex="1">
                    <mxGeometry x="271" y="260" width="210" height="100" as="geometry"/>
                </mxCell>
                <mxCell id="Pzw7nNcND0kRklFvFOgV-4" value="" style="rounded=0;html=1;labelBackgroundColor=none;endArrow=none;edgeStyle=elbowEdgeStyle;elbow=vertical;startArrow=sysMLPackCont;startSize=12;entryX=0.5;entryY=0;entryDx=0;entryDy=0;exitX=0.5;exitY=1;exitDx=0;exitDy=0;" parent="Pzw7nNcND0kRklFvFOgV-47" source="JpJYAk7kGCK7lJFS0bpi-4" target="Pzw7nNcND0kRklFvFOgV-3" edge="1">
                    <mxGeometry relative="1" as="geometry">
                        <mxPoint x="1169" y="210" as="sourcePoint"/>
                        <mxPoint x="1174" y="260" as="targetPoint"/>
                    </mxGeometry>
                </mxCell>
                <mxCell id="Pzw7nNcND0kRklFvFOgV-5" value="&amp;lt;&amp;lt;verify&amp;gt;&amp;gt;" style="endArrow=open;edgeStyle=none;endSize=12;dashed=1;html=1;rounded=0;exitX=0.25;exitY=0;exitDx=0;exitDy=0;entryX=0.75;entryY=1;entryDx=0;entryDy=0;" parent="Pzw7nNcND0kRklFvFOgV-47" source="WjRAYZnWuuN52-Zl4NBK-25" target="WjRAYZnWuuN52-Zl4NBK-5" edge="1">
                    <mxGeometry relative="1" as="geometry">
                        <mxPoint x="969" y="890" as="sourcePoint"/>
                        <mxPoint x="1069" y="760" as="targetPoint"/>
                        <mxPoint as="offset"/>
                        <Array as="points"/>
                    </mxGeometry>
                </mxCell>
                <mxCell id="Pzw7nNcND0kRklFvFOgV-7" value="&lt;p style=&quot;margin:0px;margin-top:4px;text-align:center;&quot;&gt;&amp;lt;&amp;lt;requirement&amp;gt;&amp;gt;&lt;br&gt;&lt;b&gt;Create Funding Need&lt;/b&gt;&lt;/p&gt;&lt;hr&gt;&lt;p&gt;&lt;/p&gt;&lt;p style=&quot;margin:0px;margin-left:8px;text-align:left;&quot;&gt;text=&quot;Logged-user can create new funding need&quot;&lt;br&gt;Id=&quot;62j32.&quot;&lt;/p&gt;" style="shape=rect;overflow=fill;html=1;whiteSpace=wrap;align=center;" parent="Pzw7nNcND0kRklFvFOgV-47" vertex="1">
                    <mxGeometry x="361" y="440" width="210" height="100" as="geometry"/>
                </mxCell>
                <mxCell id="Pzw7nNcND0kRklFvFOgV-8" value="&lt;p style=&quot;margin:0px;margin-top:4px;text-align:center;&quot;&gt;&amp;lt;&amp;lt;requirement&amp;gt;&amp;gt;&lt;br&gt;&lt;b&gt;Update Funding Need&lt;/b&gt;&lt;/p&gt;&lt;hr&gt;&lt;p&gt;&lt;/p&gt;&lt;p style=&quot;margin:0px;margin-left:8px;text-align:left;&quot;&gt;text=&quot;Logged-users can update their existing funding needs&quot;&lt;br&gt;Id=&quot;62j32.&quot;&lt;/p&gt;" style="shape=rect;overflow=fill;html=1;whiteSpace=wrap;align=center;" parent="Pzw7nNcND0kRklFvFOgV-47" vertex="1">
                    <mxGeometry x="361" y="610" width="210" height="100" as="geometry"/>
                </mxCell>
                <mxCell id="Pzw7nNcND0kRklFvFOgV-9" value="&lt;p style=&quot;margin:0px;margin-top:4px;text-align:center;&quot;&gt;&amp;lt;&amp;lt;requirement&amp;gt;&amp;gt;&lt;br&gt;&lt;b&gt;View Funding Needs&lt;/b&gt;&lt;/p&gt;&lt;hr&gt;&lt;p&gt;&lt;/p&gt;&lt;p style=&quot;margin:0px;margin-left:8px;text-align:left;&quot;&gt;text=&quot;Modify existing a funding need&quot;&lt;br&gt;Id=&quot;62j32.&quot;&lt;/p&gt;" style="shape=rect;overflow=fill;html=1;whiteSpace=wrap;align=center;" parent="Pzw7nNcND0kRklFvFOgV-47" vertex="1">
                    <mxGeometry x="361" y="770" width="210" height="100" as="geometry"/>
                </mxCell>
                <mxCell id="Pzw7nNcND0kRklFvFOgV-10" value="&lt;p style=&quot;margin:0px;margin-top:4px;text-align:center;&quot;&gt;&amp;lt;&amp;lt;requirement&amp;gt;&amp;gt;&lt;br&gt;&lt;b&gt;View Funding Need in Detail&lt;/b&gt;&lt;/p&gt;&lt;hr&gt;&lt;p&gt;&lt;/p&gt;&lt;p style=&quot;margin:0px;margin-left:8px;text-align:left;&quot;&gt;text=&quot;Modify existing a funding need&quot;&lt;br&gt;Id=&quot;62j32.&quot;&lt;/p&gt;" style="shape=rect;overflow=fill;html=1;whiteSpace=wrap;align=center;" parent="Pzw7nNcND0kRklFvFOgV-47" vertex="1">
                    <mxGeometry x="361" y="920" width="210" height="100" as="geometry"/>
                </mxCell>
                <mxCell id="Pzw7nNcND0kRklFvFOgV-14" value="" style="rounded=0;html=1;labelBackgroundColor=none;endArrow=none;edgeStyle=elbowEdgeStyle;elbow=vertical;startArrow=sysMLPackCont;startSize=12;exitX=0.25;exitY=1;exitDx=0;exitDy=0;entryX=0;entryY=0.5;entryDx=0;entryDy=0;" parent="Pzw7nNcND0kRklFvFOgV-47" source="Pzw7nNcND0kRklFvFOgV-3" target="Pzw7nNcND0kRklFvFOgV-7" edge="1">
                    <mxGeometry relative="1" as="geometry">
                        <mxPoint x="986" y="240" as="sourcePoint"/>
                        <mxPoint x="361" y="490" as="targetPoint"/>
                        <Array as="points">
                            <mxPoint x="381" y="490"/>
                        </Array>
                    </mxGeometry>
                </mxCell>
                <mxCell id="Pzw7nNcND0kRklFvFOgV-15" value="" style="rounded=0;html=1;labelBackgroundColor=none;endArrow=none;edgeStyle=elbowEdgeStyle;elbow=vertical;startArrow=sysMLPackCont;startSize=12;exitX=0.25;exitY=1;exitDx=0;exitDy=0;entryX=0;entryY=0.5;entryDx=0;entryDy=0;" parent="Pzw7nNcND0kRklFvFOgV-47" source="Pzw7nNcND0kRklFvFOgV-3" target="Pzw7nNcND0kRklFvFOgV-8" edge="1">
                    <mxGeometry relative="1" as="geometry">
                        <mxPoint x="371" y="400" as="sourcePoint"/>
                        <mxPoint x="351" y="660" as="targetPoint"/>
                        <Array as="points">
                            <mxPoint x="401" y="660"/>
                        </Array>
                    </mxGeometry>
                </mxCell>
                <mxCell id="Pzw7nNcND0kRklFvFOgV-16" value="" style="rounded=0;html=1;labelBackgroundColor=none;endArrow=none;edgeStyle=elbowEdgeStyle;elbow=vertical;startArrow=sysMLPackCont;startSize=12;exitX=0.25;exitY=1;exitDx=0;exitDy=0;entryX=0;entryY=0.5;entryDx=0;entryDy=0;" parent="Pzw7nNcND0kRklFvFOgV-47" source="Pzw7nNcND0kRklFvFOgV-3" target="Pzw7nNcND0kRklFvFOgV-9" edge="1">
                    <mxGeometry relative="1" as="geometry">
                        <mxPoint x="386" y="370" as="sourcePoint"/>
                        <mxPoint x="361" y="820" as="targetPoint"/>
                        <Array as="points">
                            <mxPoint x="401" y="820"/>
                        </Array>
                    </mxGeometry>
                </mxCell>
                <mxCell id="Pzw7nNcND0kRklFvFOgV-17" value="" style="rounded=0;html=1;labelBackgroundColor=none;endArrow=none;edgeStyle=elbowEdgeStyle;elbow=vertical;startArrow=sysMLPackCont;startSize=12;exitX=0.25;exitY=1;exitDx=0;exitDy=0;entryX=-0.003;entryY=0.596;entryDx=0;entryDy=0;entryPerimeter=0;" parent="Pzw7nNcND0kRklFvFOgV-47" source="Pzw7nNcND0kRklFvFOgV-3" target="Pzw7nNcND0kRklFvFOgV-10" edge="1">
                    <mxGeometry relative="1" as="geometry">
                        <mxPoint x="386" y="370" as="sourcePoint"/>
                        <mxPoint x="341" y="980" as="targetPoint"/>
                        <Array as="points">
                            <mxPoint x="401" y="980"/>
                        </Array>
                    </mxGeometry>
                </mxCell>
                <mxCell id="Pzw7nNcND0kRklFvFOgV-18" value="&lt;p style=&quot;margin:0px;margin-top:4px;text-align:center;&quot;&gt;&amp;lt;&amp;lt;requirement&amp;gt;&amp;gt;&lt;br&gt;&lt;b&gt;Donation Management&lt;/b&gt;&lt;/p&gt;&lt;hr&gt;&lt;p&gt;&lt;/p&gt;&lt;p style=&quot;margin:0px;margin-left:8px;text-align:left;&quot;&gt;text=&quot;Modify existing a funding need&quot;&lt;br&gt;Id=&quot;62j32.&quot;&lt;/p&gt;" style="shape=rect;overflow=fill;html=1;whiteSpace=wrap;align=center;" parent="Pzw7nNcND0kRklFvFOgV-47" vertex="1">
                    <mxGeometry x="611" y="274" width="210" height="100" as="geometry"/>
                </mxCell>
                <mxCell id="Pzw7nNcND0kRklFvFOgV-19" value="&lt;p style=&quot;margin:0px;margin-top:4px;text-align:center;&quot;&gt;&amp;lt;&amp;lt;requirement&amp;gt;&amp;gt;&lt;br&gt;&lt;b&gt;Send Donation&lt;/b&gt;&lt;/p&gt;&lt;hr&gt;&lt;p&gt;&lt;/p&gt;&lt;p style=&quot;margin:0px;margin-left:8px;text-align:left;&quot;&gt;text=&quot;Any logged-users can send donation to funding needs&quot;&lt;br&gt;Id=&quot;62j32.&quot;&lt;/p&gt;" style="shape=rect;overflow=fill;html=1;whiteSpace=wrap;align=center;" parent="Pzw7nNcND0kRklFvFOgV-47" vertex="1">
                    <mxGeometry x="716" y="440" width="210" height="100" as="geometry"/>
                </mxCell>
                <mxCell id="Pzw7nNcND0kRklFvFOgV-23" value="" style="rounded=0;html=1;labelBackgroundColor=none;endArrow=none;edgeStyle=elbowEdgeStyle;elbow=vertical;startArrow=sysMLPackCont;startSize=12;exitX=0.5;exitY=1;exitDx=0;exitDy=0;" parent="Pzw7nNcND0kRklFvFOgV-47" source="JpJYAk7kGCK7lJFS0bpi-4" target="Pzw7nNcND0kRklFvFOgV-18" edge="1">
                    <mxGeometry relative="1" as="geometry">
                        <mxPoint x="1169" y="210" as="sourcePoint"/>
                        <mxPoint x="324" y="270" as="targetPoint"/>
                        <Array as="points">
                            <mxPoint x="909" y="230"/>
                        </Array>
                    </mxGeometry>
                </mxCell>
                <mxCell id="Pzw7nNcND0kRklFvFOgV-24" value="" style="rounded=0;html=1;labelBackgroundColor=none;endArrow=none;edgeStyle=elbowEdgeStyle;elbow=vertical;startArrow=sysMLPackCont;startSize=12;exitX=0.25;exitY=1;exitDx=0;exitDy=0;entryX=0;entryY=0.5;entryDx=0;entryDy=0;" parent="Pzw7nNcND0kRklFvFOgV-47" source="Pzw7nNcND0kRklFvFOgV-18" target="Pzw7nNcND0kRklFvFOgV-19" edge="1">
                    <mxGeometry relative="1" as="geometry">
                        <mxPoint x="334" y="370" as="sourcePoint"/>
                        <mxPoint x="371" y="500" as="targetPoint"/>
                        <Array as="points">
                            <mxPoint x="671" y="490"/>
                        </Array>
                    </mxGeometry>
                </mxCell>
                <mxCell id="Pzw7nNcND0kRklFvFOgV-29" value="&amp;lt;&amp;lt;depends on&amp;gt;&amp;gt;" style="endArrow=open;edgeStyle=none;endSize=12;dashed=1;html=1;rounded=0;exitX=1;exitY=0.5;exitDx=0;exitDy=0;entryX=0;entryY=0.5;entryDx=0;entryDy=0;" parent="Pzw7nNcND0kRklFvFOgV-47" source="Pzw7nNcND0kRklFvFOgV-18" target="WjRAYZnWuuN52-Zl4NBK-36" edge="1">
                    <mxGeometry relative="1" as="geometry">
                        <mxPoint x="1174" y="660" as="sourcePoint"/>
                        <mxPoint x="1174" y="550" as="targetPoint"/>
                    </mxGeometry>
                </mxCell>
                <mxCell id="Pzw7nNcND0kRklFvFOgV-30" value="&amp;lt;&amp;lt;depends on&amp;gt;&amp;gt;" style="endArrow=open;edgeStyle=none;endSize=12;dashed=1;html=1;rounded=0;exitX=1;exitY=0.5;exitDx=0;exitDy=0;entryX=0;entryY=0.75;entryDx=0;entryDy=0;" parent="Pzw7nNcND0kRklFvFOgV-47" source="Pzw7nNcND0kRklFvFOgV-3" target="WjRAYZnWuuN52-Zl4NBK-36" edge="1">
                    <mxGeometry relative="1" as="geometry">
                        <mxPoint x="769" y="334" as="sourcePoint"/>
                        <mxPoint x="1074" y="335" as="targetPoint"/>
                        <Array as="points">
                            <mxPoint x="479" y="310"/>
                            <mxPoint x="520" y="310"/>
                            <mxPoint x="520" y="410"/>
                            <mxPoint x="959" y="410"/>
                        </Array>
                    </mxGeometry>
                </mxCell>
                <mxCell id="Pzw7nNcND0kRklFvFOgV-31" value="&lt;p style=&quot;margin:0px;margin-top:4px;text-align:center;&quot;&gt;&amp;lt;&amp;lt;requirement&amp;gt;&amp;gt;&lt;br&gt;&lt;b&gt;View donation history&lt;/b&gt;&lt;/p&gt;&lt;hr&gt;&lt;p&gt;&lt;/p&gt;&lt;p style=&quot;margin:0px;margin-left:8px;text-align:left;&quot;&gt;text=&quot;Modify existing a funding need&quot;&lt;br&gt;Id=&quot;62j32.&quot;&lt;/p&gt;" style="shape=rect;overflow=fill;html=1;whiteSpace=wrap;align=center;" parent="Pzw7nNcND0kRklFvFOgV-47" vertex="1">
                    <mxGeometry x="701" y="620" width="210" height="100" as="geometry"/>
                </mxCell>
                <mxCell id="Pzw7nNcND0kRklFvFOgV-32" value="" style="rounded=0;html=1;labelBackgroundColor=none;endArrow=none;edgeStyle=elbowEdgeStyle;elbow=vertical;startArrow=sysMLPackCont;startSize=12;entryX=0;entryY=0.5;entryDx=0;entryDy=0;exitX=0.25;exitY=1;exitDx=0;exitDy=0;" parent="Pzw7nNcND0kRklFvFOgV-47" source="Pzw7nNcND0kRklFvFOgV-18" target="Pzw7nNcND0kRklFvFOgV-31" edge="1">
                    <mxGeometry relative="1" as="geometry">
                        <mxPoint x="674" y="384" as="sourcePoint"/>
                        <mxPoint x="711" y="780" as="targetPoint"/>
                        <Array as="points">
                            <mxPoint x="681" y="660"/>
                        </Array>
                    </mxGeometry>
                </mxCell>
                <mxCell id="Pzw7nNcND0kRklFvFOgV-33" value="&amp;lt;&amp;lt;modifies&amp;gt;&amp;gt;" style="endArrow=open;edgeStyle=none;endSize=12;dashed=1;html=1;rounded=0;exitX=1;exitY=0.75;exitDx=0;exitDy=0;entryX=1;entryY=0.5;entryDx=0;entryDy=0;jumpStyle=arc;" parent="Pzw7nNcND0kRklFvFOgV-47" source="Pzw7nNcND0kRklFvFOgV-8" target="Pzw7nNcND0kRklFvFOgV-10" edge="1">
                    <mxGeometry x="0.2683" relative="1" as="geometry">
                        <mxPoint x="1101" y="890" as="sourcePoint"/>
                        <mxPoint x="1186" y="760" as="targetPoint"/>
                        <mxPoint as="offset"/>
                        <Array as="points">
                            <mxPoint x="621" y="685"/>
                            <mxPoint x="621" y="970"/>
                        </Array>
                    </mxGeometry>
                </mxCell>
                <mxCell id="Pzw7nNcND0kRklFvFOgV-34" value="&amp;lt;&amp;lt;modifies&amp;gt;&amp;gt;" style="endArrow=open;edgeStyle=none;endSize=12;dashed=1;html=1;rounded=0;exitX=1;exitY=0.5;exitDx=0;exitDy=0;entryX=1;entryY=0.5;entryDx=0;entryDy=0;jumpStyle=arc;" parent="Pzw7nNcND0kRklFvFOgV-47" source="Pzw7nNcND0kRklFvFOgV-8" target="Pzw7nNcND0kRklFvFOgV-9" edge="1">
                    <mxGeometry relative="1" as="geometry">
                        <mxPoint x="581" y="670" as="sourcePoint"/>
                        <mxPoint x="581" y="980" as="targetPoint"/>
                        <mxPoint as="offset"/>
                        <Array as="points">
                            <mxPoint x="651" y="660"/>
                            <mxPoint x="651" y="820"/>
                        </Array>
                    </mxGeometry>
                </mxCell>
                <mxCell id="Pzw7nNcND0kRklFvFOgV-36" value="&amp;lt;&amp;lt;depends on&amp;gt;&amp;gt;" style="endArrow=open;edgeStyle=none;endSize=12;dashed=1;html=1;rounded=0;exitX=1;exitY=0.5;exitDx=0;exitDy=0;entryX=1.003;entryY=0.305;entryDx=0;entryDy=0;entryPerimeter=0;" parent="Pzw7nNcND0kRklFvFOgV-47" source="Pzw7nNcND0kRklFvFOgV-19" target="Pzw7nNcND0kRklFvFOgV-42" edge="1">
                    <mxGeometry x="0.2392" relative="1" as="geometry">
                        <mxPoint x="901" y="862" as="sourcePoint"/>
                        <mxPoint x="1186" y="760" as="targetPoint"/>
                        <mxPoint as="offset"/>
                        <Array as="points">
                            <mxPoint x="950" y="490"/>
                            <mxPoint x="950" y="881"/>
                        </Array>
                    </mxGeometry>
                </mxCell>
                <mxCell id="Pzw7nNcND0kRklFvFOgV-37" value="&amp;lt;&amp;lt;depends on&amp;gt;&amp;gt;" style="endArrow=open;edgeStyle=none;endSize=12;dashed=1;html=1;rounded=0;exitX=0;exitY=0.25;exitDx=0;exitDy=0;entryX=0;entryY=0.75;entryDx=0;entryDy=0;" parent="Pzw7nNcND0kRklFvFOgV-47" source="Pzw7nNcND0kRklFvFOgV-9" target="Pzw7nNcND0kRklFvFOgV-7" edge="1">
                    <mxGeometry relative="1" as="geometry">
                        <mxPoint x="1240" y="660" as="sourcePoint"/>
                        <mxPoint x="1240" y="550" as="targetPoint"/>
                        <Array as="points">
                            <mxPoint x="280" y="795"/>
                            <mxPoint x="280" y="515"/>
                        </Array>
                    </mxGeometry>
                </mxCell>
                <mxCell id="Pzw7nNcND0kRklFvFOgV-38" value="&amp;lt;&amp;lt;depends on&amp;gt;&amp;gt;" style="endArrow=open;edgeStyle=none;endSize=12;dashed=1;html=1;rounded=0;exitX=1;exitY=0.5;exitDx=0;exitDy=0;entryX=1;entryY=0.25;entryDx=0;entryDy=0;jumpStyle=arc;" parent="Pzw7nNcND0kRklFvFOgV-47" source="Pzw7nNcND0kRklFvFOgV-31" target="Pzw7nNcND0kRklFvFOgV-19" edge="1">
                    <mxGeometry relative="1" as="geometry">
                        <mxPoint x="911" y="940" as="sourcePoint"/>
                        <mxPoint x="921" y="500" as="targetPoint"/>
                        <mxPoint as="offset"/>
                        <Array as="points">
                            <mxPoint x="991" y="670"/>
                            <mxPoint x="991" y="465"/>
                        </Array>
                    </mxGeometry>
                </mxCell>
                <mxCell id="Pzw7nNcND0kRklFvFOgV-39" value="&amp;lt;&amp;lt;depends on&amp;gt;&amp;gt;" style="endArrow=open;edgeStyle=none;endSize=12;dashed=1;html=1;rounded=0;exitX=0;exitY=0.75;exitDx=0;exitDy=0;entryX=1;entryY=0.75;entryDx=0;entryDy=0;jumpStyle=arc;" parent="Pzw7nNcND0kRklFvFOgV-47" source="Pzw7nNcND0kRklFvFOgV-19" target="Pzw7nNcND0kRklFvFOgV-7" edge="1">
                    <mxGeometry relative="1" as="geometry">
                        <mxPoint x="921" y="680" as="sourcePoint"/>
                        <mxPoint x="921" y="475" as="targetPoint"/>
                        <mxPoint as="offset"/>
                        <Array as="points">
                            <mxPoint x="611" y="515"/>
                        </Array>
                    </mxGeometry>
                </mxCell>
                <mxCell id="Pzw7nNcND0kRklFvFOgV-40" value="&lt;p style=&quot;margin:0px;margin-top:4px;text-align:center;&quot;&gt;&amp;lt;&amp;lt;testCase&amp;gt;&amp;gt;&lt;br&gt;&lt;b&gt;Verify Expiring Data&lt;/b&gt;&lt;/p&gt;&lt;hr&gt;End date must be a future date&lt;p&gt;&lt;/p&gt;" style="shape=rect;overflow=fill;html=1;whiteSpace=wrap;align=center;" parent="Pzw7nNcND0kRklFvFOgV-47" vertex="1">
                    <mxGeometry x="10" y="430" width="200" height="70" as="geometry"/>
                </mxCell>
                <mxCell id="Pzw7nNcND0kRklFvFOgV-41" value="&amp;lt;&amp;lt;verify&amp;gt;&amp;gt;" style="endArrow=open;edgeStyle=none;endSize=12;dashed=1;html=1;rounded=0;exitX=1;exitY=0.5;exitDx=0;exitDy=0;entryX=0;entryY=0.25;entryDx=0;entryDy=0;" parent="Pzw7nNcND0kRklFvFOgV-47" source="Pzw7nNcND0kRklFvFOgV-40" target="Pzw7nNcND0kRklFvFOgV-7" edge="1">
                    <mxGeometry x="-0.1944" relative="1" as="geometry">
                        <mxPoint x="911" y="872" as="sourcePoint"/>
                        <mxPoint x="936" y="500" as="targetPoint"/>
                        <mxPoint as="offset"/>
                        <Array as="points"/>
                    </mxGeometry>
                </mxCell>
                <mxCell id="Pzw7nNcND0kRklFvFOgV-42" value="&lt;p style=&quot;margin:0px;margin-top:4px;text-align:center;&quot;&gt;&amp;lt;&amp;lt;requirement&amp;gt;&amp;gt;&lt;br&gt;&lt;b&gt;Payment Gateway&lt;/b&gt;&lt;/p&gt;&lt;hr&gt;&lt;p&gt;&lt;/p&gt;&lt;p style=&quot;margin:0px;margin-left:8px;text-align:left;&quot;&gt;text=&quot;Payment Gateway must be abivailable for any donation&quot;&lt;br&gt;Id=&quot;62j32.&quot;&lt;/p&gt;" style="shape=rect;overflow=fill;html=1;whiteSpace=wrap;align=center;" parent="Pzw7nNcND0kRklFvFOgV-47" vertex="1">
                    <mxGeometry x="696" y="850" width="210" height="100" as="geometry"/>
                </mxCell>
                <mxCell id="Pzw7nNcND0kRklFvFOgV-43" value="&lt;p style=&quot;margin:0px;margin-top:4px;text-align:center;&quot;&gt;&amp;lt;&amp;lt;testCase&amp;gt;&amp;gt;&lt;br&gt;&lt;b&gt;Validate Required Content&lt;/b&gt;&lt;/p&gt;&lt;hr&gt;A funding need must have one image&lt;p&gt;&lt;/p&gt;" style="shape=rect;overflow=fill;html=1;whiteSpace=wrap;align=center;" parent="Pzw7nNcND0kRklFvFOgV-47" vertex="1">
                    <mxGeometry y="540" width="220" height="70" as="geometry"/>
                </mxCell>
                <mxCell id="Pzw7nNcND0kRklFvFOgV-44" value="&amp;lt;&amp;lt;verify&amp;gt;&amp;gt;" style="endArrow=open;edgeStyle=none;endSize=12;dashed=1;html=1;rounded=0;exitX=1;exitY=0.5;exitDx=0;exitDy=0;entryX=0.5;entryY=1;entryDx=0;entryDy=0;" parent="Pzw7nNcND0kRklFvFOgV-47" source="Pzw7nNcND0kRklFvFOgV-43" target="Pzw7nNcND0kRklFvFOgV-7" edge="1">
                    <mxGeometry x="-0.1944" relative="1" as="geometry">
                        <mxPoint x="220" y="475" as="sourcePoint"/>
                        <mxPoint x="371" y="475" as="targetPoint"/>
                        <mxPoint as="offset"/>
                        <Array as="points">
                            <mxPoint x="466" y="575"/>
                        </Array>
                    </mxGeometry>
                </mxCell>
            </root>
        </mxGraphModel>
    </diagram>
    <diagram name="Blocks" id="3R9UtdNPaxBSzpcxHGdz">
        <mxGraphModel dx="5737" dy="1858" grid="1" gridSize="10" guides="1" tooltips="1" connect="1" arrows="1" fold="1" page="1" pageScale="1" pageWidth="850" pageHeight="1100" math="0" shadow="0">
            <root>
                <mxCell id="0"/>
                <mxCell id="1" parent="0"/>
                <mxCell id="NbNUgkqiTgXxVHREbWEb-2" value="&lt;p style=&quot;margin:0px;margin-top:4px;margin-left:7px;text-align:left;&quot;&gt;&lt;b&gt;bdd&lt;/b&gt;&amp;nbsp;[Package] Online Donation Tracker System&lt;/p&gt;" style="html=1;shape=mxgraph.sysml.package;overflow=fill;labelX=273.19;strokeWidth=2;align=center;" parent="1" vertex="1">
                    <mxGeometry x="-1770" y="170" width="1880" height="1460" as="geometry"/>
                </mxCell>
                <mxCell id="OCQqDHPVg-M2ODs9NZuo-1" value="&lt;p style=&quot;margin:0px;margin-top:4px;text-align:center;&quot;&gt;&lt;b&gt;UserInterface&lt;/b&gt;&lt;/p&gt;&lt;hr&gt;&lt;p style=&quot;margin:0px;margin-left:8px;text-align:left;&quot;&gt;Register&lt;/p&gt;&lt;p style=&quot;margin:0px;margin-left:8px;text-align:left;&quot;&gt;Login&lt;/p&gt;&lt;p style=&quot;margin:0px;margin-left:8px;text-align:left;&quot;&gt;HomePage&lt;/p&gt;&lt;p style=&quot;margin:0px;margin-left:8px;text-align:left;&quot;&gt;Profile&lt;/p&gt;&lt;p style=&quot;margin:0px;margin-left:8px;text-align:left;&quot;&gt;FundingNeedDetails&lt;/p&gt;&lt;p style=&quot;margin:0px;margin-left:8px;text-align:left;&quot;&gt;FundingNeedCreation&lt;/p&gt;&lt;p style=&quot;margin:0px;margin-left:8px;text-align:left;&quot;&gt;DonationHistory&lt;/p&gt;&lt;p style=&quot;margin:0px;margin-left:8px;text-align:left;&quot;&gt;StripePayment&lt;/p&gt;&lt;p style=&quot;margin:0px;margin-left:8px;text-align:left;&quot;&gt;DonationConfirmation&lt;/p&gt;" style="shape=rect;html=1;overflow=fill;whiteSpace=wrap;" parent="1" vertex="1">
                    <mxGeometry x="-1365" y="458.13" width="200" height="172.5" as="geometry"/>
                </mxCell>
                <mxCell id="OCQqDHPVg-M2ODs9NZuo-2" value="&lt;p style=&quot;margin:0px;margin-top:4px;text-align:center;&quot;&gt;&lt;b&gt;FrontendComponent&lt;/b&gt;&lt;/p&gt;&lt;hr&gt;&lt;p style=&quot;margin:0px;margin-left:8px;text-align:left;&quot;&gt;DonationInputModal&lt;/p&gt;&lt;p style=&quot;margin:0px;margin-left:8px;text-align:left;&quot;&gt;DonorsList&lt;/p&gt;&lt;p style=&quot;margin:0px;margin-left:8px;text-align:left;&quot;&gt;FileUploadForm&lt;/p&gt;&lt;p style=&quot;margin:0px;margin-left:8px;text-align:left;&quot;&gt;FundingNeedForm&lt;/p&gt;&lt;p style=&quot;margin:0px;margin-left:8px;text-align:left;&quot;&gt;FundingNeedItem&lt;/p&gt;&lt;p style=&quot;margin:0px;margin-left:8px;text-align:left;&quot;&gt;FundingNeedList&lt;/p&gt;" style="shape=rect;html=1;overflow=fill;whiteSpace=wrap;" parent="1" vertex="1">
                    <mxGeometry x="-1700" y="479.38" width="200" height="130" as="geometry"/>
                </mxCell>
                <mxCell id="OCQqDHPVg-M2ODs9NZuo-3" value="&lt;p style=&quot;margin:0px;margin-top:4px;text-align:center;&quot;&gt;&lt;b style=&quot;background-color: initial;&quot;&gt;BackendService&lt;/b&gt;&lt;br&gt;&lt;/p&gt;&lt;hr&gt;&lt;p style=&quot;margin:0px;margin-left:8px;text-align:left;&quot;&gt;AuthService&lt;/p&gt;&lt;p style=&quot;margin:0px;margin-left:8px;text-align:left;&quot;&gt;&lt;span style=&quot;background-color: initial;&quot;&gt;MediaFileService&lt;/span&gt;&lt;br&gt;&lt;/p&gt;&lt;p style=&quot;margin:0px;margin-left:8px;text-align:left;&quot;&gt;FundingNeedService&lt;/p&gt;&lt;p style=&quot;margin:0px;margin-left:8px;text-align:left;&quot;&gt;DonationService&lt;/p&gt;&lt;p style=&quot;margin:0px;margin-left:8px;text-align:left;&quot;&gt;PaymentService&lt;/p&gt;&lt;p style=&quot;margin:0px;margin-left:8px;text-align:left;&quot;&gt;MailService&lt;/p&gt;" style="shape=rect;html=1;overflow=fill;whiteSpace=wrap;" parent="1" vertex="1">
                    <mxGeometry x="-880" y="478.76" width="200" height="131.25" as="geometry"/>
                </mxCell>
                <mxCell id="OCQqDHPVg-M2ODs9NZuo-4" value="&lt;p style=&quot;margin:0px;margin-top:4px;text-align:center;&quot;&gt;&lt;b&gt;Notification System&lt;/b&gt;&lt;/p&gt;&lt;hr&gt;&lt;p style=&quot;margin:0px;margin-left:8px;text-align:left;&quot;&gt;ToastManager&lt;/p&gt;&lt;p style=&quot;margin:0px;margin-left:8px;text-align:left;&quot;&gt;ErrorHandling&lt;/p&gt;&lt;p style=&quot;margin:0px;margin-left:8px;text-align:left;&quot;&gt;&lt;br&gt;&lt;/p&gt;" style="shape=rect;html=1;overflow=fill;whiteSpace=wrap;" parent="1" vertex="1">
                    <mxGeometry x="-1165" y="340" width="200" height="80" as="geometry"/>
                </mxCell>
                <mxCell id="OCQqDHPVg-M2ODs9NZuo-5" value="&lt;p style=&quot;margin:0px;margin-top:4px;text-align:center;&quot;&gt;&lt;b&gt;Middleware&lt;/b&gt;&lt;/p&gt;&lt;hr&gt;&lt;p style=&quot;margin:0px;margin-left:8px;text-align:left;&quot;&gt;ValidationMiddleware&lt;/p&gt;&lt;p style=&quot;margin:0px;margin-left:8px;text-align:left;&quot;&gt;AuthMiddleware&lt;/p&gt;" style="shape=rect;html=1;overflow=fill;whiteSpace=wrap;" parent="1" vertex="1">
                    <mxGeometry x="-410" y="550" width="200" height="70" as="geometry"/>
                </mxCell>
                <mxCell id="OCQqDHPVg-M2ODs9NZuo-6" value="&lt;p style=&quot;margin:0px;margin-top:4px;text-align:center;&quot;&gt;&lt;b&gt;AuthService&lt;/b&gt;&lt;/p&gt;&lt;hr&gt;&lt;p style=&quot;margin:0px;margin-left:8px;text-align:left;&quot;&gt;TokenGenerator&lt;/p&gt;&lt;p style=&quot;margin:0px;margin-left:8px;text-align:left;&quot;&gt;SessionManager&lt;/p&gt;&lt;p style=&quot;margin:0px;margin-left:8px;text-align:left;&quot;&gt;RegisterUser&lt;/p&gt;&lt;p style=&quot;margin:0px;margin-left:8px;text-align:left;&quot;&gt;LoginUser&lt;/p&gt;&lt;p style=&quot;margin:0px;margin-left:8px;text-align:left;&quot;&gt;GetProfile&lt;/p&gt;" style="shape=rect;html=1;overflow=fill;whiteSpace=wrap;" parent="1" vertex="1">
                    <mxGeometry x="-1140" y="1350" width="200" height="110" as="geometry"/>
                </mxCell>
                <mxCell id="OCQqDHPVg-M2ODs9NZuo-19" value="&lt;p style=&quot;margin:0px;margin-top:4px;text-align:center;&quot;&gt;&lt;b&gt;ProfileService&lt;/b&gt;&lt;/p&gt;&lt;hr&gt;&lt;p style=&quot;margin:0px;margin-left:8px;text-align:left;&quot;&gt;UpdateProfile&lt;/p&gt;&lt;p style=&quot;margin:0px;margin-left:8px;text-align:left;&quot;&gt;GetProfileSettings&lt;/p&gt;&lt;p style=&quot;margin:0px;margin-left:8px;text-align:left;&quot;&gt;GetProfile&lt;/p&gt;" style="shape=rect;html=1;overflow=fill;whiteSpace=wrap;" parent="1" vertex="1">
                    <mxGeometry x="-110" y="740" width="200" height="90" as="geometry"/>
                </mxCell>
                <mxCell id="OCQqDHPVg-M2ODs9NZuo-20" value="&lt;p style=&quot;margin:0px;margin-top:4px;text-align:center;&quot;&gt;&lt;b style=&quot;background-color: initial;&quot;&gt;Online Donation Tracker System&lt;/b&gt;&lt;br&gt;&lt;/p&gt;&lt;hr&gt;&lt;p style=&quot;margin:0px;margin-left:8px;text-align:left;&quot;&gt;UserInterface&lt;/p&gt;&lt;p style=&quot;margin:0px;margin-left:8px;text-align:left;&quot;&gt;BackendService&lt;/p&gt;&lt;p style=&quot;margin:0px;margin-left:8px;text-align:left;&quot;&gt;Database&lt;/p&gt;&lt;p style=&quot;margin:0px;margin-left:8px;text-align:left;&quot;&gt;Middleware&lt;/p&gt;&lt;p style=&quot;margin:0px;margin-left:8px;text-align:left;&quot;&gt;NotificationSystem&lt;/p&gt;" style="shape=rect;html=1;overflow=fill;whiteSpace=wrap;" parent="1" vertex="1">
                    <mxGeometry x="-900" y="210" width="240" height="130" as="geometry"/>
                </mxCell>
                <mxCell id="OCQqDHPVg-M2ODs9NZuo-21" value="&lt;p style=&quot;margin:0px;margin-top:4px;text-align:center;&quot;&gt;&lt;b&gt;MediaFileService&lt;/b&gt;&lt;/p&gt;&lt;hr&gt;&lt;p style=&quot;margin:0px;margin-left:8px;text-align:left;&quot;&gt;FileUpload&lt;/p&gt;&lt;p style=&quot;margin:0px;margin-left:8px;text-align:left;&quot;&gt;MultipleFileUpload&lt;/p&gt;&lt;p style=&quot;margin:0px;margin-left:8px;text-align:left;&quot;&gt;GetFiles&lt;/p&gt;&lt;p style=&quot;margin:0px;margin-left:8px;text-align:left;&quot;&gt;DeleteFile&lt;/p&gt;" style="shape=rect;html=1;overflow=fill;whiteSpace=wrap;" parent="1" vertex="1">
                    <mxGeometry x="-1140" y="1170" width="200" height="100" as="geometry"/>
                </mxCell>
                <mxCell id="OCQqDHPVg-M2ODs9NZuo-24" value="&lt;p style=&quot;margin:0px;margin-top:4px;text-align:center;&quot;&gt;&lt;b&gt;MailService&lt;/b&gt;&lt;/p&gt;&lt;hr&gt;&lt;p style=&quot;margin:0px;margin-left:8px;text-align:left;&quot;&gt;SendDonationConfirmation&lt;/p&gt;&lt;p style=&quot;margin:0px;margin-left:8px;text-align:left;&quot;&gt;SendInvoice&lt;/p&gt;&lt;p style=&quot;margin:0px;margin-left:8px;text-align:left;&quot;&gt;SendVetificationCode&lt;/p&gt;" style="shape=rect;html=1;overflow=fill;whiteSpace=wrap;" parent="1" vertex="1">
                    <mxGeometry x="-200" y="1250" width="200" height="85" as="geometry"/>
                </mxCell>
                <mxCell id="OCQqDHPVg-M2ODs9NZuo-25" value="composition/part1" style="align=right;html=1;verticalAlign=bottom;endArrow=none;startArrow=diamondThin;startSize=14;startFill=1;edgeStyle=none;rounded=0;exitX=0;exitY=0.5;exitDx=0;exitDy=0;entryX=1;entryY=0.5;entryDx=0;entryDy=0;" parent="1" source="OCQqDHPVg-M2ODs9NZuo-1" target="OCQqDHPVg-M2ODs9NZuo-2" edge="1">
                    <mxGeometry x="-0.5556" y="-5" relative="1" as="geometry">
                        <mxPoint x="-1460" y="755" as="sourcePoint"/>
                        <mxPoint x="-1550" y="755" as="targetPoint"/>
                        <mxPoint as="offset"/>
                    </mxGeometry>
                </mxCell>
                <mxCell id="OCQqDHPVg-M2ODs9NZuo-26" value="1" style="resizable=0;html=1;align=left;verticalAlign=top;labelBackgroundColor=none;fontSize=10" parent="OCQqDHPVg-M2ODs9NZuo-25" connectable="0" vertex="1">
                    <mxGeometry x="-1" relative="1" as="geometry">
                        <mxPoint x="-10" as="offset"/>
                    </mxGeometry>
                </mxCell>
                <mxCell id="OCQqDHPVg-M2ODs9NZuo-27" value="0..*" style="resizable=0;html=1;align=right;verticalAlign=top;labelBackgroundColor=none;fontSize=10" parent="OCQqDHPVg-M2ODs9NZuo-25" connectable="0" vertex="1">
                    <mxGeometry x="1" relative="1" as="geometry">
                        <mxPoint x="20" as="offset"/>
                    </mxGeometry>
                </mxCell>
                <mxCell id="OCQqDHPVg-M2ODs9NZuo-28" value="composition/part1" style="align=right;html=1;verticalAlign=bottom;endArrow=none;startArrow=diamondThin;startSize=14;startFill=1;edgeStyle=none;rounded=0;exitX=0;exitY=0.5;exitDx=0;exitDy=0;entryX=0.5;entryY=0;entryDx=0;entryDy=0;" parent="1" source="OCQqDHPVg-M2ODs9NZuo-20" target="OCQqDHPVg-M2ODs9NZuo-1" edge="1">
                    <mxGeometry x="0.2143" y="30" relative="1" as="geometry">
                        <mxPoint x="-1170" y="610" as="sourcePoint"/>
                        <mxPoint x="-1380" y="680" as="targetPoint"/>
                        <Array as="points">
                            <mxPoint x="-1265" y="275"/>
                        </Array>
                        <mxPoint as="offset"/>
                    </mxGeometry>
                </mxCell>
                <mxCell id="OCQqDHPVg-M2ODs9NZuo-29" value="1" style="resizable=0;html=1;align=left;verticalAlign=top;labelBackgroundColor=none;fontSize=10" parent="OCQqDHPVg-M2ODs9NZuo-28" connectable="0" vertex="1">
                    <mxGeometry x="-1" relative="1" as="geometry">
                        <mxPoint x="-10" as="offset"/>
                    </mxGeometry>
                </mxCell>
                <mxCell id="OCQqDHPVg-M2ODs9NZuo-30" value="&lt;p style=&quot;margin:0px;margin-top:4px;text-align:center;&quot;&gt;&lt;b&gt;Database&lt;/b&gt;&lt;/p&gt;&lt;hr&gt;&lt;p style=&quot;margin:0px;margin-left:8px;text-align:left;&quot;&gt;&lt;span style=&quot;background-color: initial;&quot;&gt;FundingNeedCollection&lt;/span&gt;&lt;br&gt;&lt;/p&gt;&lt;p style=&quot;margin:0px;margin-left:8px;text-align:left;&quot;&gt;&lt;span style=&quot;background-color: initial;&quot;&gt;DonationCollection&lt;/span&gt;&lt;/p&gt;&lt;p style=&quot;margin:0px;margin-left:8px;text-align:left;&quot;&gt;&lt;span style=&quot;background-color: initial;&quot;&gt;TransationCollection&lt;/span&gt;&lt;/p&gt;&lt;p style=&quot;margin:0px;margin-left:8px;text-align:left;&quot;&gt;UserCollection&lt;/p&gt;&lt;p style=&quot;margin:0px;margin-left:8px;text-align:left;&quot;&gt;TransationCollection&lt;/p&gt;&lt;p style=&quot;margin:0px;margin-left:8px;text-align:left;&quot;&gt;NotificationCollection&lt;/p&gt;&lt;p style=&quot;margin:0px;margin-left:8px;text-align:left;&quot;&gt;MailTemplateCollection&lt;/p&gt;&lt;p style=&quot;margin:0px;margin-left:8px;text-align:left;&quot;&gt;&lt;br&gt;&lt;/p&gt;" style="shape=rect;html=1;overflow=fill;whiteSpace=wrap;" parent="1" vertex="1">
                    <mxGeometry x="-640" y="360" width="200" height="145" as="geometry"/>
                </mxCell>
                <mxCell id="OCQqDHPVg-M2ODs9NZuo-31" value="composition/part1" style="align=right;html=1;verticalAlign=bottom;endArrow=none;startArrow=diamondThin;startSize=14;startFill=1;edgeStyle=none;rounded=0;exitX=1;exitY=0.5;exitDx=0;exitDy=0;entryX=0.5;entryY=0;entryDx=0;entryDy=0;" parent="1" source="OCQqDHPVg-M2ODs9NZuo-20" target="OCQqDHPVg-M2ODs9NZuo-30" edge="1">
                    <mxGeometry x="0.2143" y="30" relative="1" as="geometry">
                        <mxPoint x="-890" y="345" as="sourcePoint"/>
                        <mxPoint x="-1020" y="618" as="targetPoint"/>
                        <Array as="points">
                            <mxPoint x="-540" y="275"/>
                        </Array>
                        <mxPoint as="offset"/>
                    </mxGeometry>
                </mxCell>
                <mxCell id="OCQqDHPVg-M2ODs9NZuo-32" value="1" style="resizable=0;html=1;align=left;verticalAlign=top;labelBackgroundColor=none;fontSize=10" parent="OCQqDHPVg-M2ODs9NZuo-31" connectable="0" vertex="1">
                    <mxGeometry x="-1" relative="1" as="geometry">
                        <mxPoint x="-10" as="offset"/>
                    </mxGeometry>
                </mxCell>
                <mxCell id="OCQqDHPVg-M2ODs9NZuo-33" value="composition/part1" style="align=right;html=1;verticalAlign=bottom;endArrow=none;startArrow=diamondThin;startSize=14;startFill=1;edgeStyle=none;rounded=0;exitX=1;exitY=0.25;exitDx=0;exitDy=0;entryX=0.5;entryY=0;entryDx=0;entryDy=0;" parent="1" source="OCQqDHPVg-M2ODs9NZuo-20" target="OCQqDHPVg-M2ODs9NZuo-5" edge="1">
                    <mxGeometry x="0.2143" y="30" relative="1" as="geometry">
                        <mxPoint x="-650" y="345" as="sourcePoint"/>
                        <mxPoint x="-530" y="520" as="targetPoint"/>
                        <Array as="points">
                            <mxPoint x="-310" y="243"/>
                        </Array>
                        <mxPoint as="offset"/>
                    </mxGeometry>
                </mxCell>
                <mxCell id="OCQqDHPVg-M2ODs9NZuo-34" value="1" style="resizable=0;html=1;align=left;verticalAlign=top;labelBackgroundColor=none;fontSize=10" parent="OCQqDHPVg-M2ODs9NZuo-33" connectable="0" vertex="1">
                    <mxGeometry x="-1" relative="1" as="geometry">
                        <mxPoint x="-10" as="offset"/>
                    </mxGeometry>
                </mxCell>
                <mxCell id="OCQqDHPVg-M2ODs9NZuo-35" value="&amp;lt;&amp;lt;use&amp;gt;&amp;gt;" style="edgeStyle=none;html=1;endArrow=open;endSize=12;dashed=1;verticalAlign=bottom;rounded=0;exitX=1;exitY=0.25;exitDx=0;exitDy=0;entryX=0.25;entryY=1;entryDx=0;entryDy=0;jumpStyle=arc;" parent="1" source="F_IcwBfwnBXLFqgMfGWh-5" target="OCQqDHPVg-M2ODs9NZuo-5" edge="1">
                    <mxGeometry x="-0.2011" y="18" width="160" relative="1" as="geometry">
                        <mxPoint x="-730" y="774.9999999999998" as="sourcePoint"/>
                        <mxPoint x="-580" y="780" as="targetPoint"/>
                        <Array as="points"/>
                        <mxPoint as="offset"/>
                    </mxGeometry>
                </mxCell>
                <mxCell id="OCQqDHPVg-M2ODs9NZuo-36" value="&amp;lt;&amp;lt;use&amp;gt;&amp;gt;" style="edgeStyle=none;html=1;endArrow=open;endSize=12;dashed=1;verticalAlign=bottom;rounded=0;exitX=0.5;exitY=0;exitDx=0;exitDy=0;entryX=1;entryY=0.5;entryDx=0;entryDy=0;" parent="1" source="OCQqDHPVg-M2ODs9NZuo-19" target="OCQqDHPVg-M2ODs9NZuo-5" edge="1">
                    <mxGeometry x="-0.33" width="160" relative="1" as="geometry">
                        <mxPoint x="-420" y="845" as="sourcePoint"/>
                        <mxPoint x="-240" y="470" as="targetPoint"/>
                        <Array as="points">
                            <mxPoint x="-10" y="585"/>
                        </Array>
                        <mxPoint as="offset"/>
                    </mxGeometry>
                </mxCell>
                <mxCell id="OCQqDHPVg-M2ODs9NZuo-37" value="&amp;lt;&amp;lt;depends on&amp;gt;&amp;gt;&amp;nbsp;" style="edgeStyle=none;html=1;endArrow=open;endSize=12;dashed=1;verticalAlign=bottom;rounded=0;exitX=0.5;exitY=1;exitDx=0;exitDy=0;entryX=0;entryY=0.5;entryDx=0;entryDy=0;jumpStyle=arc;" parent="1" source="GfvtaCKNaA-bXwLxs-4Q-13" target="OCQqDHPVg-M2ODs9NZuo-6" edge="1">
                    <mxGeometry x="-0.1526" width="160" relative="1" as="geometry">
                        <mxPoint x="-1020" y="890" as="sourcePoint"/>
                        <mxPoint x="-751" y="971" as="targetPoint"/>
                        <mxPoint as="offset"/>
                        <Array as="points">
                            <mxPoint x="-1240" y="1405"/>
                        </Array>
                    </mxGeometry>
                </mxCell>
                <mxCell id="OCQqDHPVg-M2ODs9NZuo-38" value="&amp;lt;&amp;lt;depends on&amp;gt;&amp;gt;" style="edgeStyle=none;html=1;endArrow=open;endSize=12;dashed=1;verticalAlign=bottom;rounded=0;exitX=0.5;exitY=1;exitDx=0;exitDy=0;entryX=1;entryY=0.25;entryDx=0;entryDy=0;" parent="1" source="F_IcwBfwnBXLFqgMfGWh-8" target="OCQqDHPVg-M2ODs9NZuo-6" edge="1">
                    <mxGeometry x="0.2031" y="-9" width="160" relative="1" as="geometry">
                        <mxPoint x="-830" y="845" as="sourcePoint"/>
                        <mxPoint x="-840" y="1030" as="targetPoint"/>
                        <mxPoint x="1" as="offset"/>
                    </mxGeometry>
                </mxCell>
                <mxCell id="OCQqDHPVg-M2ODs9NZuo-39" value="&amp;lt;&amp;lt;depends on&amp;gt;&amp;gt;" style="edgeStyle=none;html=1;endArrow=open;endSize=12;dashed=1;verticalAlign=bottom;rounded=0;entryX=0;entryY=0.5;entryDx=0;entryDy=0;exitX=1;exitY=0.75;exitDx=0;exitDy=0;" parent="1" source="F_IcwBfwnBXLFqgMfGWh-5" target="OCQqDHPVg-M2ODs9NZuo-19" edge="1">
                    <mxGeometry x="-0.3015" y="-6" width="160" relative="1" as="geometry">
                        <mxPoint x="-680" y="808.1132075471696" as="sourcePoint"/>
                        <mxPoint x="-740" y="1085" as="targetPoint"/>
                        <mxPoint as="offset"/>
                    </mxGeometry>
                </mxCell>
                <mxCell id="OCQqDHPVg-M2ODs9NZuo-40" value="depends on" style="edgeStyle=none;html=1;endArrow=open;endSize=12;dashed=1;verticalAlign=bottom;rounded=0;entryX=0.5;entryY=0;entryDx=0;entryDy=0;exitX=0.5;exitY=1;exitDx=0;exitDy=0;" parent="1" source="OCQqDHPVg-M2ODs9NZuo-21" target="OCQqDHPVg-M2ODs9NZuo-6" edge="1">
                    <mxGeometry x="-0.004" width="160" relative="1" as="geometry">
                        <mxPoint x="-670" y="1059.5" as="sourcePoint"/>
                        <mxPoint x="-571" y="1060.5" as="targetPoint"/>
                        <mxPoint as="offset"/>
                    </mxGeometry>
                </mxCell>
                <mxCell id="OCQqDHPVg-M2ODs9NZuo-41" value="&lt;span style=&quot;color: rgba(0, 0, 0, 0); font-family: monospace; font-size: 0px; text-align: start; background-color: rgb(236, 236, 236);&quot;&gt;%3CmxGraphModel%3E%3Croot%3E%3CmxCell%20id%3D%220%22%2F%3E%3CmxCell%20id%3D%221%22%20parent%3D%220%22%2F%3E%3CmxCell%20id%3D%222%22%20value%3D%22%26lt%3Bp%20style%3D%26quot%3Bmargin%3A0px%3Bmargin-top%3A4px%3Bmargin-left%3A10px%3Btext-align%3Aleft%3B%26quot%3B%26gt%3B%26lt%3Bb%26gt%3Bbdd%26lt%3B%2Fb%26gt%3B%26amp%3Bnbsp%3B%5BPackage%5D%20PetClinicManagementApp%26lt%3B%2Fp%26gt%3B%22%20style%3D%22html%3D1%3Bshape%3Dmxgraph.sysml.package%3BlabelX%3D249.47%3Balign%3Dleft%3BspacingLeft%3D10%3Boverflow%3Dfill%3BrecursiveResize%3D0%3B%22%20vertex%3D%221%22%20parent%3D%221%22%3E%3CmxGeometry%20x%3D%22-1743%22%20y%3D%22519%22%20width%3D%221330%22%20height%3D%22721%22%20as%3D%22geometry%22%2F%3E%3C%2FmxCell%3E%3C%2Froot%3E%3C%2FmxGraphModel%3E&lt;/span&gt;" style="align=right;html=1;verticalAlign=bottom;endArrow=none;startArrow=diamondThin;startSize=14;startFill=1;edgeStyle=none;rounded=0;exitX=0.5;exitY=1;exitDx=0;exitDy=0;" parent="1" source="OCQqDHPVg-M2ODs9NZuo-20" target="OCQqDHPVg-M2ODs9NZuo-3" edge="1">
                    <mxGeometry x="0.3846" y="10" relative="1" as="geometry">
                        <mxPoint x="-770" y="400" as="sourcePoint"/>
                        <mxPoint x="-770" y="465" as="targetPoint"/>
                        <mxPoint as="offset"/>
                    </mxGeometry>
                </mxCell>
                <mxCell id="OCQqDHPVg-M2ODs9NZuo-42" value="1" style="resizable=0;html=1;align=left;verticalAlign=top;labelBackgroundColor=none;fontSize=10" parent="OCQqDHPVg-M2ODs9NZuo-41" connectable="0" vertex="1">
                    <mxGeometry x="-1" relative="1" as="geometry">
                        <mxPoint x="10" as="offset"/>
                    </mxGeometry>
                </mxCell>
                <mxCell id="OCQqDHPVg-M2ODs9NZuo-43" value="&lt;span style=&quot;color: rgba(0, 0, 0, 0); font-family: monospace; font-size: 0px; text-align: start; background-color: rgb(236, 236, 236);&quot;&gt;%3CmxGraphModel%3E%3Croot%3E%3CmxCell%20id%3D%220%22%2F%3E%3CmxCell%20id%3D%221%22%20parent%3D%220%22%2F%3E%3CmxCell%20id%3D%222%22%20value%3D%22%26lt%3Bp%20style%3D%26quot%3Bmargin%3A0px%3Bmargin-top%3A4px%3Bmargin-left%3A10px%3Btext-align%3Aleft%3B%26quot%3B%26gt%3B%26lt%3Bb%26gt%3Bbdd%26lt%3B%2Fb%26gt%3B%26amp%3Bnbsp%3B%5BPackage%5D%20PetClinicManagementApp%26lt%3B%2Fp%26gt%3B%22%20style%3D%22html%3D1%3Bshape%3Dmxgraph.sysml.package%3BlabelX%3D249.47%3Balign%3Dleft%3BspacingLeft%3D10%3Boverflow%3Dfill%3BrecursiveResize%3D0%3B%22%20vertex%3D%221%22%20parent%3D%221%22%3E%3CmxGeometry%20x%3D%22-1743%22%20y%3D%22519%22%20width%3D%221330%22%20height%3D%22721%22%20as%3D%22geometry%22%2F%3E%3C%2FmxCell%3E%3C%2Froot%3E%3C%2FmxGraphModel%3E&lt;/span&gt;" style="edgeLabel;html=1;align=center;verticalAlign=middle;resizable=0;points=[];" parent="OCQqDHPVg-M2ODs9NZuo-41" vertex="1" connectable="0">
                    <mxGeometry x="0.2063" y="1" relative="1" as="geometry">
                        <mxPoint as="offset"/>
                    </mxGeometry>
                </mxCell>
                <mxCell id="OCQqDHPVg-M2ODs9NZuo-44" value="&lt;span style=&quot;text-align: right;&quot;&gt;composition/part1&lt;/span&gt;" style="edgeLabel;html=1;align=center;verticalAlign=middle;resizable=0;points=[];" parent="OCQqDHPVg-M2ODs9NZuo-41" vertex="1" connectable="0">
                    <mxGeometry x="0.2063" relative="1" as="geometry">
                        <mxPoint as="offset"/>
                    </mxGeometry>
                </mxCell>
                <mxCell id="OCQqDHPVg-M2ODs9NZuo-45" value="composition/part1" style="align=right;html=1;verticalAlign=bottom;endArrow=none;startArrow=diamondThin;startSize=14;startFill=1;edgeStyle=none;rounded=0;entryX=1;entryY=0;entryDx=0;entryDy=0;exitX=0.25;exitY=1;exitDx=0;exitDy=0;" parent="1" source="OCQqDHPVg-M2ODs9NZuo-3" target="GfvtaCKNaA-bXwLxs-4Q-10" edge="1">
                    <mxGeometry x="0.2844" y="10" relative="1" as="geometry">
                        <mxPoint x="-1110" y="840" as="sourcePoint"/>
                        <mxPoint x="-1020" y="710" as="targetPoint"/>
                        <Array as="points"/>
                        <mxPoint as="offset"/>
                    </mxGeometry>
                </mxCell>
                <mxCell id="OCQqDHPVg-M2ODs9NZuo-46" value="1" style="resizable=0;html=1;align=left;verticalAlign=top;labelBackgroundColor=none;fontSize=10" parent="OCQqDHPVg-M2ODs9NZuo-45" connectable="0" vertex="1">
                    <mxGeometry x="-1" relative="1" as="geometry">
                        <mxPoint x="10" y="10" as="offset"/>
                    </mxGeometry>
                </mxCell>
                <mxCell id="OCQqDHPVg-M2ODs9NZuo-47" value="composition/part1" style="align=right;html=1;verticalAlign=bottom;endArrow=none;startArrow=diamondThin;startSize=14;startFill=1;edgeStyle=none;rounded=0;exitX=0.5;exitY=1;exitDx=0;exitDy=0;" parent="1" source="OCQqDHPVg-M2ODs9NZuo-3" target="F_IcwBfwnBXLFqgMfGWh-2" edge="1">
                    <mxGeometry x="0.5068" y="30" relative="1" as="geometry">
                        <mxPoint x="-820" y="639" as="sourcePoint"/>
                        <mxPoint x="-780" y="774.9999999999998" as="targetPoint"/>
                        <Array as="points"/>
                        <mxPoint as="offset"/>
                    </mxGeometry>
                </mxCell>
                <mxCell id="OCQqDHPVg-M2ODs9NZuo-48" value="1" style="resizable=0;html=1;align=left;verticalAlign=top;labelBackgroundColor=none;fontSize=10" parent="OCQqDHPVg-M2ODs9NZuo-47" connectable="0" vertex="1">
                    <mxGeometry x="-1" relative="1" as="geometry">
                        <mxPoint x="10" y="10" as="offset"/>
                    </mxGeometry>
                </mxCell>
                <mxCell id="OCQqDHPVg-M2ODs9NZuo-49" value="composition/part1" style="align=right;html=1;verticalAlign=bottom;endArrow=none;startArrow=diamondThin;startSize=14;startFill=1;edgeStyle=none;rounded=0;entryX=0;entryY=0.25;entryDx=0;entryDy=0;exitX=0.75;exitY=1;exitDx=0;exitDy=0;jumpStyle=arc;" parent="1" source="OCQqDHPVg-M2ODs9NZuo-3" target="OCQqDHPVg-M2ODs9NZuo-19" edge="1">
                    <mxGeometry x="0.7014" y="12" relative="1" as="geometry">
                        <mxPoint x="-770" y="639" as="sourcePoint"/>
                        <mxPoint x="-610" y="780" as="targetPoint"/>
                        <Array as="points"/>
                        <mxPoint y="1" as="offset"/>
                    </mxGeometry>
                </mxCell>
                <mxCell id="OCQqDHPVg-M2ODs9NZuo-50" value="1" style="resizable=0;html=1;align=left;verticalAlign=top;labelBackgroundColor=none;fontSize=10" parent="OCQqDHPVg-M2ODs9NZuo-49" connectable="0" vertex="1">
                    <mxGeometry x="-1" relative="1" as="geometry">
                        <mxPoint x="10" y="10" as="offset"/>
                    </mxGeometry>
                </mxCell>
                <mxCell id="OCQqDHPVg-M2ODs9NZuo-51" value="&amp;lt;&amp;lt;depends on&amp;gt;&amp;gt;" style="edgeStyle=none;html=1;endArrow=open;endSize=12;dashed=1;verticalAlign=bottom;rounded=0;entryX=1;entryY=0.5;entryDx=0;entryDy=0;exitX=0;exitY=0.25;exitDx=0;exitDy=0;" parent="1" source="F_IcwBfwnBXLFqgMfGWh-16" target="OCQqDHPVg-M2ODs9NZuo-6" edge="1">
                    <mxGeometry x="-0.0047" width="160" relative="1" as="geometry">
                        <mxPoint x="-600" y="947.5" as="sourcePoint"/>
                        <mxPoint x="-740" y="1073" as="targetPoint"/>
                        <mxPoint as="offset"/>
                    </mxGeometry>
                </mxCell>
                <mxCell id="OCQqDHPVg-M2ODs9NZuo-52" value="&amp;lt;&amp;lt;depends on&amp;gt;&amp;gt;" style="edgeStyle=none;html=1;endArrow=open;endSize=12;dashed=1;verticalAlign=bottom;rounded=0;exitX=0;exitY=0;exitDx=0;exitDy=0;entryX=1;entryY=0.25;entryDx=0;entryDy=0;" parent="1" source="F_IcwBfwnBXLFqgMfGWh-13" target="F_IcwBfwnBXLFqgMfGWh-8" edge="1">
                    <mxGeometry x="-0.0537" y="-3" width="160" relative="1" as="geometry">
                        <mxPoint x="-597.6599999999999" y="917.5799999999999" as="sourcePoint"/>
                        <mxPoint x="-730" y="845" as="targetPoint"/>
                        <Array as="points"/>
                        <mxPoint as="offset"/>
                    </mxGeometry>
                </mxCell>
                <mxCell id="OCQqDHPVg-M2ODs9NZuo-54" value="&amp;lt;&amp;lt;depends on&amp;gt;&amp;gt;" style="edgeStyle=none;html=1;endArrow=open;endSize=12;dashed=1;verticalAlign=bottom;rounded=0;exitX=1;exitY=0.5;exitDx=0;exitDy=0;entryX=0;entryY=0.5;entryDx=0;entryDy=0;" parent="1" source="OCQqDHPVg-M2ODs9NZuo-1" target="OCQqDHPVg-M2ODs9NZuo-3" edge="1">
                    <mxGeometry x="-0.004" width="160" relative="1" as="geometry">
                        <mxPoint x="-770" y="855" as="sourcePoint"/>
                        <mxPoint x="-910" y="988" as="targetPoint"/>
                        <mxPoint as="offset"/>
                    </mxGeometry>
                </mxCell>
                <mxCell id="OCQqDHPVg-M2ODs9NZuo-55" value="&amp;lt;&amp;lt;use&amp;gt;&amp;gt;" style="edgeStyle=none;html=1;endArrow=open;endSize=12;dashed=1;verticalAlign=bottom;rounded=0;exitX=0.75;exitY=0;exitDx=0;exitDy=0;entryX=0;entryY=0.5;entryDx=0;entryDy=0;" parent="1" source="OCQqDHPVg-M2ODs9NZuo-1" target="OCQqDHPVg-M2ODs9NZuo-4" edge="1">
                    <mxGeometry x="-0.33" width="160" relative="1" as="geometry">
                        <mxPoint x="-190" y="760" as="sourcePoint"/>
                        <mxPoint x="-60" y="580" as="targetPoint"/>
                        <Array as="points">
                            <mxPoint x="-1215" y="380"/>
                        </Array>
                        <mxPoint as="offset"/>
                    </mxGeometry>
                </mxCell>
                <mxCell id="OCQqDHPVg-M2ODs9NZuo-56" value="&lt;span style=&quot;color: rgba(0, 0, 0, 0); font-family: monospace; font-size: 0px; text-align: start; background-color: rgb(236, 236, 236);&quot;&gt;%3CmxGraphModel%3E%3Croot%3E%3CmxCell%20id%3D%220%22%2F%3E%3CmxCell%20id%3D%221%22%20parent%3D%220%22%2F%3E%3CmxCell%20id%3D%222%22%20value%3D%22%26lt%3Bp%20style%3D%26quot%3Bmargin%3A0px%3Bmargin-top%3A4px%3Bmargin-left%3A10px%3Btext-align%3Aleft%3B%26quot%3B%26gt%3B%26lt%3Bb%26gt%3Bbdd%26lt%3B%2Fb%26gt%3B%26amp%3Bnbsp%3B%5BPackage%5D%20PetClinicManagementApp%26lt%3B%2Fp%26gt%3B%22%20style%3D%22html%3D1%3Bshape%3Dmxgraph.sysml.package%3BlabelX%3D249.47%3Balign%3Dleft%3BspacingLeft%3D10%3Boverflow%3Dfill%3BrecursiveResize%3D0%3B%22%20vertex%3D%221%22%20parent%3D%221%22%3E%3CmxGeometry%20x%3D%22-1743%22%20y%3D%22519%22%20width%3D%221330%22%20height%3D%22721%22%20as%3D%22geometry%22%2F%3E%3C%2FmxCell%3E%3C%2Froot%3E%3C%2FmxGraphModel%3E&lt;/span&gt;" style="align=right;html=1;verticalAlign=bottom;endArrow=none;startArrow=diamondThin;startSize=14;startFill=1;edgeStyle=none;rounded=0;exitX=0.25;exitY=1;exitDx=0;exitDy=0;entryX=1;entryY=0.5;entryDx=0;entryDy=0;" parent="1" source="OCQqDHPVg-M2ODs9NZuo-20" target="OCQqDHPVg-M2ODs9NZuo-4" edge="1">
                    <mxGeometry x="0.3846" y="10" relative="1" as="geometry">
                        <mxPoint x="-770" y="350" as="sourcePoint"/>
                        <mxPoint x="-770" y="500" as="targetPoint"/>
                        <mxPoint as="offset"/>
                        <Array as="points">
                            <mxPoint x="-840" y="380"/>
                        </Array>
                    </mxGeometry>
                </mxCell>
                <mxCell id="OCQqDHPVg-M2ODs9NZuo-57" value="1" style="resizable=0;html=1;align=left;verticalAlign=top;labelBackgroundColor=none;fontSize=10" parent="OCQqDHPVg-M2ODs9NZuo-56" connectable="0" vertex="1">
                    <mxGeometry x="-1" relative="1" as="geometry">
                        <mxPoint x="10" as="offset"/>
                    </mxGeometry>
                </mxCell>
                <mxCell id="OCQqDHPVg-M2ODs9NZuo-58" value="&lt;span style=&quot;color: rgba(0, 0, 0, 0); font-family: monospace; font-size: 0px; text-align: start; background-color: rgb(236, 236, 236);&quot;&gt;%3CmxGraphModel%3E%3Croot%3E%3CmxCell%20id%3D%220%22%2F%3E%3CmxCell%20id%3D%221%22%20parent%3D%220%22%2F%3E%3CmxCell%20id%3D%222%22%20value%3D%22%26lt%3Bp%20style%3D%26quot%3Bmargin%3A0px%3Bmargin-top%3A4px%3Bmargin-left%3A10px%3Btext-align%3Aleft%3B%26quot%3B%26gt%3B%26lt%3Bb%26gt%3Bbdd%26lt%3B%2Fb%26gt%3B%26amp%3Bnbsp%3B%5BPackage%5D%20PetClinicManagementApp%26lt%3B%2Fp%26gt%3B%22%20style%3D%22html%3D1%3Bshape%3Dmxgraph.sysml.package%3BlabelX%3D249.47%3Balign%3Dleft%3BspacingLeft%3D10%3Boverflow%3Dfill%3BrecursiveResize%3D0%3B%22%20vertex%3D%221%22%20parent%3D%221%22%3E%3CmxGeometry%20x%3D%22-1743%22%20y%3D%22519%22%20width%3D%221330%22%20height%3D%22721%22%20as%3D%22geometry%22%2F%3E%3C%2FmxCell%3E%3C%2Froot%3E%3C%2FmxGraphModel%3E&lt;/span&gt;" style="edgeLabel;html=1;align=center;verticalAlign=middle;resizable=0;points=[];" parent="OCQqDHPVg-M2ODs9NZuo-56" vertex="1" connectable="0">
                    <mxGeometry x="0.2063" y="1" relative="1" as="geometry">
                        <mxPoint as="offset"/>
                    </mxGeometry>
                </mxCell>
                <mxCell id="OCQqDHPVg-M2ODs9NZuo-59" value="&lt;span style=&quot;text-align: right;&quot;&gt;composition/part1&lt;/span&gt;" style="edgeLabel;html=1;align=center;verticalAlign=middle;resizable=0;points=[];" parent="OCQqDHPVg-M2ODs9NZuo-56" vertex="1" connectable="0">
                    <mxGeometry x="0.2063" relative="1" as="geometry">
                        <mxPoint as="offset"/>
                    </mxGeometry>
                </mxCell>
                <mxCell id="OCQqDHPVg-M2ODs9NZuo-60" value="&amp;lt;&amp;lt;use&amp;gt;&amp;gt;" style="edgeStyle=none;html=1;endArrow=open;endSize=12;dashed=1;verticalAlign=bottom;rounded=0;exitX=1;exitY=0.5;exitDx=0;exitDy=0;entryX=0;entryY=0.5;entryDx=0;entryDy=0;jumpStyle=arc;" parent="1" source="GfvtaCKNaA-bXwLxs-4Q-10" target="OCQqDHPVg-M2ODs9NZuo-5" edge="1">
                    <mxGeometry x="0.4821" y="4" width="160" relative="1" as="geometry">
                        <mxPoint x="-920" y="800" as="sourcePoint"/>
                        <mxPoint x="-350" y="595" as="targetPoint"/>
                        <Array as="points"/>
                        <mxPoint as="offset"/>
                    </mxGeometry>
                </mxCell>
                <mxCell id="OCQqDHPVg-M2ODs9NZuo-63" value="depends on" style="edgeStyle=none;html=1;endArrow=open;endSize=12;dashed=1;verticalAlign=bottom;rounded=0;entryX=1;entryY=0.75;entryDx=0;entryDy=0;exitX=0.75;exitY=1;exitDx=0;exitDy=0;" parent="1" target="OCQqDHPVg-M2ODs9NZuo-6" edge="1" source="OCQqDHPVg-M2ODs9NZuo-19">
                    <mxGeometry x="0.2568" y="-5" width="160" relative="1" as="geometry">
                        <mxPoint x="40" y="938" as="sourcePoint"/>
                        <mxPoint x="-310" y="1048" as="targetPoint"/>
                        <Array as="points">
                            <mxPoint x="40" y="1430"/>
                        </Array>
                        <mxPoint as="offset"/>
                    </mxGeometry>
                </mxCell>
                <mxCell id="OCQqDHPVg-M2ODs9NZuo-64" value="&amp;lt;&amp;lt;use&amp;gt;&amp;gt;" style="edgeStyle=none;html=1;endArrow=open;endSize=12;dashed=1;verticalAlign=bottom;rounded=0;entryX=0;entryY=0.5;entryDx=0;entryDy=0;exitX=1;exitY=0.75;exitDx=0;exitDy=0;" parent="1" source="F_IcwBfwnBXLFqgMfGWh-13" target="OCQqDHPVg-M2ODs9NZuo-24" edge="1">
                    <mxGeometry x="-0.0021" width="160" relative="1" as="geometry">
                        <mxPoint x="-380" y="920" as="sourcePoint"/>
                        <mxPoint x="-350" y="1202.5" as="targetPoint"/>
                        <mxPoint as="offset"/>
                        <Array as="points"/>
                    </mxGeometry>
                </mxCell>
                <mxCell id="OCQqDHPVg-M2ODs9NZuo-65" value="&amp;lt;&amp;lt;use&amp;gt;&amp;gt;" style="edgeStyle=none;html=1;endArrow=open;endSize=12;dashed=1;verticalAlign=bottom;rounded=0;exitX=0.5;exitY=0;exitDx=0;exitDy=0;entryX=0.75;entryY=1;entryDx=0;entryDy=0;jumpStyle=arc;" parent="1" source="F_IcwBfwnBXLFqgMfGWh-10" target="OCQqDHPVg-M2ODs9NZuo-5" edge="1">
                    <mxGeometry x="-0.0289" y="-8" width="160" relative="1" as="geometry">
                        <mxPoint x="-465" y="887.5" as="sourcePoint"/>
                        <mxPoint x="-300" y="630" as="targetPoint"/>
                        <Array as="points"/>
                        <mxPoint as="offset"/>
                    </mxGeometry>
                </mxCell>
                <mxCell id="GfvtaCKNaA-bXwLxs-4Q-6" value="" style="fontStyle=1;align=center;verticalAlign=middle;childLayout=stackLayout;horizontal=1;horizontalStack=0;resizeParent=1;resizeParentMax=0;resizeLast=0;marginBottom=0;" parent="1" vertex="1">
                    <mxGeometry x="-1340" y="650" width="200" height="274" as="geometry"/>
                </mxCell>
                <mxCell id="F_IcwBfwnBXLFqgMfGWh-66" value="&amp;lt;&amp;lt;block&amp;gt;&amp;gt;" style="html=1;align=center;spacing=0;verticalAlign=middle;strokeColor=none;fillColor=none;whiteSpace=wrap;" parent="GfvtaCKNaA-bXwLxs-4Q-6" vertex="1">
                    <mxGeometry width="200" height="18" as="geometry"/>
                </mxCell>
                <mxCell id="GfvtaCKNaA-bXwLxs-4Q-7" value="&lt;div&gt;&lt;br&gt;&lt;/div&gt;&lt;b&gt;FundingNeedService&lt;/b&gt;" style="html=1;align=center;spacing=0;verticalAlign=middle;strokeColor=none;fillColor=none;whiteSpace=wrap;fontStyle=1;" parent="GfvtaCKNaA-bXwLxs-4Q-6" vertex="1">
                    <mxGeometry y="18" width="200" height="20" as="geometry"/>
                </mxCell>
                <mxCell id="GfvtaCKNaA-bXwLxs-4Q-8" value="" style="line;strokeWidth=0.25;fillColor=none;align=left;verticalAlign=middle;spacingTop=-1;spacingLeft=3;spacingRight=3;rotatable=0;labelPosition=right;points=[];portConstraint=eastwest;" parent="GfvtaCKNaA-bXwLxs-4Q-6" vertex="1">
                    <mxGeometry y="38" width="200" height="8" as="geometry"/>
                </mxCell>
                <mxCell id="GfvtaCKNaA-bXwLxs-4Q-9" value="&lt;i style=&quot;color: light-dark(rgb(0, 0, 0), rgb(255, 255, 255)); background-color: transparent; font-size: 11px;&quot;&gt;operations&lt;/i&gt;" style="html=1;align=center;spacing=0;verticalAlign=middle;strokeColor=none;fillColor=none;whiteSpace=wrap;fontStyle=2;fontSize=10;" parent="GfvtaCKNaA-bXwLxs-4Q-6" vertex="1">
                    <mxGeometry y="46" width="200" height="16" as="geometry"/>
                </mxCell>
                <mxCell id="GfvtaCKNaA-bXwLxs-4Q-10" value="&lt;p style=&quot;margin: 0px 0px 0px 8px;&quot;&gt;CreateFundingNeed&lt;/p&gt;&lt;p style=&quot;margin: 0px 0px 0px 8px;&quot;&gt;&lt;span style=&quot;background-color: initial;&quot;&gt;GetFundingNeeds&lt;/span&gt;&lt;br&gt;&lt;/p&gt;&lt;p style=&quot;margin: 0px 0px 0px 8px;&quot;&gt;GetFundingNeedById&lt;/p&gt;&lt;p style=&quot;margin: 0px 0px 0px 8px;&quot;&gt;GetDonationProgress&lt;/p&gt;&lt;p style=&quot;margin: 0px 0px 0px 8px;&quot;&gt;GetUserCreatedFundingNeeds&lt;/p&gt;&lt;p style=&quot;margin: 0px 0px 0px 8px;&quot;&gt;UpdateFundingNeed&lt;/p&gt;&lt;p style=&quot;margin: 0px 0px 0px 8px;&quot;&gt;DeleteFundingNeeds&lt;/p&gt;" style="html=1;align=left;spacing=0;spacingLeft=8;verticalAlign=middle;strokeColor=none;fillColor=none;whiteSpace=wrap;" parent="GfvtaCKNaA-bXwLxs-4Q-6" vertex="1">
                    <mxGeometry y="62" width="200" height="122" as="geometry"/>
                </mxCell>
                <mxCell id="GfvtaCKNaA-bXwLxs-4Q-11" value="" style="line;strokeWidth=0.25;fillColor=none;align=left;verticalAlign=middle;spacingTop=-1;spacingLeft=3;spacingRight=3;rotatable=0;labelPosition=right;points=[];portConstraint=eastwest;" parent="GfvtaCKNaA-bXwLxs-4Q-6" vertex="1">
                    <mxGeometry y="184" width="200" height="8" as="geometry"/>
                </mxCell>
                <mxCell id="GfvtaCKNaA-bXwLxs-4Q-12" value="properties" style="html=1;align=center;spacing=0;verticalAlign=middle;strokeColor=none;fillColor=none;whiteSpace=wrap;fontStyle=2;fontSize=10;" parent="GfvtaCKNaA-bXwLxs-4Q-6" vertex="1">
                    <mxGeometry y="192" width="200" height="16" as="geometry"/>
                </mxCell>
                <mxCell id="GfvtaCKNaA-bXwLxs-4Q-13" value="targetAmount: Money&lt;div&gt;raisedAmount:&amp;nbsp;&lt;span style=&quot;background-color: transparent; color: light-dark(rgb(0, 0, 0), rgb(255, 255, 255));&quot;&gt;Money&lt;/span&gt;&lt;/div&gt;&lt;div&gt;&lt;span style=&quot;background-color: transparent; color: light-dark(rgb(0, 0, 0), rgb(255, 255, 255));&quot;&gt;progress: Percentage&lt;/span&gt;&lt;/div&gt;&lt;div&gt;&lt;span style=&quot;background-color: transparent; color: light-dark(rgb(0, 0, 0), rgb(255, 255, 255));&quot;&gt;fullfilled: Boolean&lt;/span&gt;&lt;/div&gt;" style="html=1;align=left;spacing=0;spacingLeft=8;verticalAlign=middle;strokeColor=none;fillColor=none;whiteSpace=wrap;" parent="GfvtaCKNaA-bXwLxs-4Q-6" vertex="1">
                    <mxGeometry y="208" width="200" height="66" as="geometry"/>
                </mxCell>
                <mxCell id="F_IcwBfwnBXLFqgMfGWh-1" value="" style="fontStyle=1;align=center;verticalAlign=middle;childLayout=stackLayout;horizontal=1;horizontalStack=0;resizeParent=1;resizeParentMax=0;resizeLast=0;marginBottom=0;" parent="1" vertex="1">
                    <mxGeometry x="-880" y="790" width="200" height="190" as="geometry"/>
                </mxCell>
                <mxCell id="F_IcwBfwnBXLFqgMfGWh-2" value="&lt;b&gt;PaymentService&lt;/b&gt;" style="html=1;align=center;spacing=0;verticalAlign=middle;strokeColor=none;fillColor=none;whiteSpace=wrap;fontStyle=1;" parent="F_IcwBfwnBXLFqgMfGWh-1" vertex="1">
                    <mxGeometry width="200" height="20" as="geometry"/>
                </mxCell>
                <mxCell id="F_IcwBfwnBXLFqgMfGWh-3" value="" style="line;strokeWidth=0.25;fillColor=none;align=left;verticalAlign=middle;spacingTop=-1;spacingLeft=3;spacingRight=3;rotatable=0;labelPosition=right;points=[];portConstraint=eastwest;" parent="F_IcwBfwnBXLFqgMfGWh-1" vertex="1">
                    <mxGeometry y="20" width="200" height="8" as="geometry"/>
                </mxCell>
                <mxCell id="F_IcwBfwnBXLFqgMfGWh-4" value="&lt;i style=&quot;color: light-dark(rgb(0, 0, 0), rgb(255, 255, 255)); background-color: transparent; font-size: 11px;&quot;&gt;operations&lt;/i&gt;" style="html=1;align=center;spacing=0;verticalAlign=middle;strokeColor=none;fillColor=none;whiteSpace=wrap;fontStyle=2;fontSize=10;" parent="F_IcwBfwnBXLFqgMfGWh-1" vertex="1">
                    <mxGeometry y="28" width="200" height="16" as="geometry"/>
                </mxCell>
                <mxCell id="F_IcwBfwnBXLFqgMfGWh-5" value="&lt;p style=&quot;margin: 0px 0px 0px 8px;&quot;&gt;CreateCheckoutSession&lt;/p&gt;&lt;p style=&quot;margin: 0px 0px 0px 8px;&quot;&gt;CancelChecoutSession&lt;/p&gt;" style="html=1;align=left;spacing=0;spacingLeft=8;verticalAlign=middle;strokeColor=none;fillColor=none;whiteSpace=wrap;" parent="F_IcwBfwnBXLFqgMfGWh-1" vertex="1">
                    <mxGeometry y="44" width="200" height="56" as="geometry"/>
                </mxCell>
                <mxCell id="F_IcwBfwnBXLFqgMfGWh-6" value="" style="line;strokeWidth=0.25;fillColor=none;align=left;verticalAlign=middle;spacingTop=-1;spacingLeft=3;spacingRight=3;rotatable=0;labelPosition=right;points=[];portConstraint=eastwest;" parent="F_IcwBfwnBXLFqgMfGWh-1" vertex="1">
                    <mxGeometry y="100" width="200" height="8" as="geometry"/>
                </mxCell>
                <mxCell id="F_IcwBfwnBXLFqgMfGWh-7" value="properties" style="html=1;align=center;spacing=0;verticalAlign=middle;strokeColor=none;fillColor=none;whiteSpace=wrap;fontStyle=2;fontSize=10;" parent="F_IcwBfwnBXLFqgMfGWh-1" vertex="1">
                    <mxGeometry y="108" width="200" height="16" as="geometry"/>
                </mxCell>
                <mxCell id="F_IcwBfwnBXLFqgMfGWh-8" value="&lt;div&gt;payRate: Real&lt;/div&gt;&lt;div&gt;&lt;span style=&quot;background-color: transparent; color: light-dark(rgb(0, 0, 0), rgb(255, 255, 255));&quot;&gt;fixedFee: Real&lt;br&gt;&lt;/span&gt;&lt;/div&gt;" style="html=1;align=left;spacing=0;spacingLeft=8;verticalAlign=middle;strokeColor=none;fillColor=none;whiteSpace=wrap;" parent="F_IcwBfwnBXLFqgMfGWh-1" vertex="1">
                    <mxGeometry y="124" width="200" height="66" as="geometry"/>
                </mxCell>
                <mxCell id="F_IcwBfwnBXLFqgMfGWh-9" value="" style="fontStyle=1;align=center;verticalAlign=middle;childLayout=stackLayout;horizontal=1;horizontalStack=0;resizeParent=1;resizeParentMax=0;resizeLast=0;marginBottom=0;" parent="1" vertex="1">
                    <mxGeometry x="-550" y="1100" width="200" height="158" as="geometry"/>
                </mxCell>
                <mxCell id="F_IcwBfwnBXLFqgMfGWh-10" value="&lt;b&gt;DonationService&lt;/b&gt;" style="html=1;align=center;spacing=0;verticalAlign=middle;strokeColor=none;fillColor=none;whiteSpace=wrap;fontStyle=1;" parent="F_IcwBfwnBXLFqgMfGWh-9" vertex="1">
                    <mxGeometry width="200" height="20" as="geometry"/>
                </mxCell>
                <mxCell id="F_IcwBfwnBXLFqgMfGWh-11" value="" style="line;strokeWidth=0.25;fillColor=none;align=left;verticalAlign=middle;spacingTop=-1;spacingLeft=3;spacingRight=3;rotatable=0;labelPosition=right;points=[];portConstraint=eastwest;" parent="F_IcwBfwnBXLFqgMfGWh-9" vertex="1">
                    <mxGeometry y="20" width="200" height="8" as="geometry"/>
                </mxCell>
                <mxCell id="F_IcwBfwnBXLFqgMfGWh-12" value="&lt;i style=&quot;color: light-dark(rgb(0, 0, 0), rgb(255, 255, 255)); background-color: transparent; font-size: 11px;&quot;&gt;operations&lt;/i&gt;" style="html=1;align=center;spacing=0;verticalAlign=middle;strokeColor=none;fillColor=none;whiteSpace=wrap;fontStyle=2;fontSize=10;" parent="F_IcwBfwnBXLFqgMfGWh-9" vertex="1">
                    <mxGeometry y="28" width="200" height="16" as="geometry"/>
                </mxCell>
                <mxCell id="F_IcwBfwnBXLFqgMfGWh-13" value="&lt;p style=&quot;margin: 0px 0px 0px 8px;&quot;&gt;MakeDonation&lt;/p&gt;&lt;p style=&quot;margin: 0px 0px 0px 8px;&quot;&gt;CreateInvoice&lt;/p&gt;" style="html=1;align=left;spacing=0;spacingLeft=8;verticalAlign=middle;strokeColor=none;fillColor=none;whiteSpace=wrap;" parent="F_IcwBfwnBXLFqgMfGWh-9" vertex="1">
                    <mxGeometry y="44" width="200" height="56" as="geometry"/>
                </mxCell>
                <mxCell id="F_IcwBfwnBXLFqgMfGWh-14" value="" style="line;strokeWidth=0.25;fillColor=none;align=left;verticalAlign=middle;spacingTop=-1;spacingLeft=3;spacingRight=3;rotatable=0;labelPosition=right;points=[];portConstraint=eastwest;" parent="F_IcwBfwnBXLFqgMfGWh-9" vertex="1">
                    <mxGeometry y="100" width="200" height="8" as="geometry"/>
                </mxCell>
                <mxCell id="F_IcwBfwnBXLFqgMfGWh-15" value="properties" style="html=1;align=center;spacing=0;verticalAlign=middle;strokeColor=none;fillColor=none;whiteSpace=wrap;fontStyle=2;fontSize=10;" parent="F_IcwBfwnBXLFqgMfGWh-9" vertex="1">
                    <mxGeometry y="108" width="200" height="16" as="geometry"/>
                </mxCell>
                <mxCell id="F_IcwBfwnBXLFqgMfGWh-16" value="&lt;div&gt;&lt;span style=&quot;background-color: transparent; color: light-dark(rgb(0, 0, 0), rgb(255, 255, 255));&quot;&gt;grossDonation: Real&lt;/span&gt;&lt;/div&gt;&lt;div&gt;&lt;span style=&quot;background-color: transparent; color: light-dark(rgb(0, 0, 0), rgb(255, 255, 255));&quot;&gt;net: Real&lt;/span&gt;&lt;/div&gt;" style="html=1;align=left;spacing=0;spacingLeft=8;verticalAlign=middle;strokeColor=none;fillColor=none;whiteSpace=wrap;" parent="F_IcwBfwnBXLFqgMfGWh-9" vertex="1">
                    <mxGeometry y="124" width="200" height="34" as="geometry"/>
                </mxCell>
                <mxCell id="F_IcwBfwnBXLFqgMfGWh-17" value="" style="fontStyle=1;align=center;verticalAlign=middle;childLayout=stackLayout;horizontal=1;horizontalStack=0;resizeParent=1;resizeParentMax=0;resizeLast=0;marginBottom=0;" parent="1" vertex="1">
                    <mxGeometry x="-180" y="950" width="200" height="132" as="geometry"/>
                </mxCell>
                <mxCell id="F_IcwBfwnBXLFqgMfGWh-18" value="&amp;lt;&amp;lt;constraint&amp;gt;&amp;gt;" style="html=1;align=center;spacing=0;verticalAlign=middle;strokeColor=none;fillColor=none;whiteSpace=wrap;" parent="F_IcwBfwnBXLFqgMfGWh-17" vertex="1">
                    <mxGeometry width="200" height="18" as="geometry"/>
                </mxCell>
                <mxCell id="F_IcwBfwnBXLFqgMfGWh-19" value="SumDonations" style="html=1;align=center;spacing=0;verticalAlign=middle;strokeColor=none;fillColor=none;whiteSpace=wrap;fontStyle=1;" parent="F_IcwBfwnBXLFqgMfGWh-17" vertex="1">
                    <mxGeometry y="18" width="200" height="18" as="geometry"/>
                </mxCell>
                <mxCell id="F_IcwBfwnBXLFqgMfGWh-20" value="" style="line;strokeWidth=0.25;fillColor=none;align=left;verticalAlign=middle;spacingTop=-1;spacingLeft=3;spacingRight=3;rotatable=0;labelPosition=right;points=[];portConstraint=eastwest;" parent="F_IcwBfwnBXLFqgMfGWh-17" vertex="1">
                    <mxGeometry y="36" width="200" height="8" as="geometry"/>
                </mxCell>
                <mxCell id="F_IcwBfwnBXLFqgMfGWh-21" value="constraints" style="html=1;align=center;spacing=0;verticalAlign=middle;strokeColor=none;fillColor=none;whiteSpace=wrap;fontStyle=2;fontSize=10;" parent="F_IcwBfwnBXLFqgMfGWh-17" vertex="1">
                    <mxGeometry y="44" width="200" height="16" as="geometry"/>
                </mxCell>
                <mxCell id="F_IcwBfwnBXLFqgMfGWh-22" value="{&amp;nbsp;&lt;span class=&quot;base&quot;&gt;RA&amp;nbsp;&lt;/span&gt;&lt;span class=&quot;base&quot;&gt;&lt;span class=&quot;mop op-limits&quot;&gt;&lt;span class=&quot;vlist-t vlist-t2&quot;&gt;&lt;span class=&quot;vlist-r&quot;&gt;&lt;span class=&quot;vlist&quot;&gt;&lt;span class=&quot;sizing reset-size6 size3 mtight&quot;&gt;&lt;span class=&quot;mord mtight&quot;&gt;&lt;span class=&quot;mrel mtight&quot;&gt;=&amp;nbsp;&lt;/span&gt;&lt;/span&gt;&lt;/span&gt;&lt;span class=&quot;mop op-symbol large-op&quot;&gt;∑&amp;nbsp;&lt;/span&gt;&lt;/span&gt;&lt;span class=&quot;vlist-s&quot;&gt;EN[&lt;/span&gt;&lt;/span&gt;&lt;/span&gt;&lt;/span&gt;&lt;span class=&quot;mord&quot;&gt;&lt;span class=&quot;msupsub&quot;&gt;&lt;span class=&quot;vlist-t vlist-t2&quot;&gt;&lt;span class=&quot;vlist-r&quot;&gt;&lt;span class=&quot;vlist&quot;&gt;&lt;span class=&quot;sizing reset-size6 size3 mtight&quot;&gt;&lt;span class=&quot;mord mathnormal mtight&quot;&gt;i]&lt;/span&gt;&lt;/span&gt;&lt;/span&gt;&lt;span class=&quot;vlist-s&quot;&gt;​&amp;nbsp;&lt;/span&gt;&lt;/span&gt;&lt;/span&gt;&lt;/span&gt;&lt;/span&gt;&lt;/span&gt;}" style="html=1;align=left;spacing=0;spacingLeft=10;verticalAlign=middle;strokeColor=none;fillColor=none;whiteSpace=wrap;" parent="F_IcwBfwnBXLFqgMfGWh-17" vertex="1">
                    <mxGeometry y="60" width="200" height="16" as="geometry"/>
                </mxCell>
                <mxCell id="F_IcwBfwnBXLFqgMfGWh-23" value="" style="line;strokeWidth=0.25;fillColor=none;align=left;verticalAlign=middle;spacingTop=-1;spacingLeft=3;spacingRight=3;rotatable=0;labelPosition=right;points=[];portConstraint=eastwest;" parent="F_IcwBfwnBXLFqgMfGWh-17" vertex="1">
                    <mxGeometry y="76" width="200" height="8" as="geometry"/>
                </mxCell>
                <mxCell id="F_IcwBfwnBXLFqgMfGWh-24" value="parameters" style="html=1;align=center;spacing=0;verticalAlign=middle;strokeColor=none;fillColor=none;whiteSpace=wrap;fontStyle=2;fontSize=10;" parent="F_IcwBfwnBXLFqgMfGWh-17" vertex="1">
                    <mxGeometry y="84" width="200" height="16" as="geometry"/>
                </mxCell>
                <mxCell id="F_IcwBfwnBXLFqgMfGWh-25" value="net[] (N): Money" style="html=1;align=left;spacing=0;spacingLeft=10;verticalAlign=middle;strokeColor=none;fillColor=none;whiteSpace=wrap;" parent="F_IcwBfwnBXLFqgMfGWh-17" vertex="1">
                    <mxGeometry y="100" width="200" height="16" as="geometry"/>
                </mxCell>
                <mxCell id="F_IcwBfwnBXLFqgMfGWh-26" value="raisedAmount (RA): Money" style="html=1;align=left;spacing=0;spacingLeft=10;verticalAlign=middle;strokeColor=none;fillColor=none;whiteSpace=wrap;" parent="F_IcwBfwnBXLFqgMfGWh-17" vertex="1">
                    <mxGeometry y="116" width="200" height="16" as="geometry"/>
                </mxCell>
                <mxCell id="F_IcwBfwnBXLFqgMfGWh-28" value="" style="fontStyle=1;align=center;verticalAlign=middle;childLayout=stackLayout;horizontal=1;horizontalStack=0;resizeParent=1;resizeParentMax=0;resizeLast=0;marginBottom=0;" parent="1" vertex="1">
                    <mxGeometry x="-1730" y="890" width="210" height="180" as="geometry"/>
                </mxCell>
                <mxCell id="F_IcwBfwnBXLFqgMfGWh-29" value="&amp;lt;&amp;lt;constraint&amp;gt;&amp;gt;" style="html=1;align=center;spacing=0;verticalAlign=middle;strokeColor=none;fillColor=none;whiteSpace=wrap;" parent="F_IcwBfwnBXLFqgMfGWh-28" vertex="1">
                    <mxGeometry width="210" height="18" as="geometry"/>
                </mxCell>
                <mxCell id="F_IcwBfwnBXLFqgMfGWh-30" value="FeeCalc" style="html=1;align=center;spacing=0;verticalAlign=middle;strokeColor=none;fillColor=none;whiteSpace=wrap;fontStyle=1;" parent="F_IcwBfwnBXLFqgMfGWh-28" vertex="1">
                    <mxGeometry y="18" width="210" height="18" as="geometry"/>
                </mxCell>
                <mxCell id="F_IcwBfwnBXLFqgMfGWh-31" value="" style="line;strokeWidth=0.25;fillColor=none;align=left;verticalAlign=middle;spacingTop=-1;spacingLeft=3;spacingRight=3;rotatable=0;labelPosition=right;points=[];portConstraint=eastwest;" parent="F_IcwBfwnBXLFqgMfGWh-28" vertex="1">
                    <mxGeometry y="36" width="210" height="8" as="geometry"/>
                </mxCell>
                <mxCell id="F_IcwBfwnBXLFqgMfGWh-32" value="constraints" style="html=1;align=center;spacing=0;verticalAlign=middle;strokeColor=none;fillColor=none;whiteSpace=wrap;fontStyle=2;fontSize=10;" parent="F_IcwBfwnBXLFqgMfGWh-28" vertex="1">
                    <mxGeometry y="44" width="210" height="16" as="geometry"/>
                </mxCell>
                <mxCell id="F_IcwBfwnBXLFqgMfGWh-33" value="{N&lt;span style=&quot;background-color: initial;&quot;&gt;&amp;nbsp;= G − (G × PlatR) − (G × PR + F)&lt;/span&gt;}" style="html=1;align=left;spacing=0;spacingLeft=10;verticalAlign=middle;strokeColor=none;fillColor=none;whiteSpace=wrap;" parent="F_IcwBfwnBXLFqgMfGWh-28" vertex="1">
                    <mxGeometry y="60" width="210" height="16" as="geometry"/>
                </mxCell>
                <mxCell id="F_IcwBfwnBXLFqgMfGWh-34" value="" style="line;strokeWidth=0.25;fillColor=none;align=left;verticalAlign=middle;spacingTop=-1;spacingLeft=3;spacingRight=3;rotatable=0;labelPosition=right;points=[];portConstraint=eastwest;" parent="F_IcwBfwnBXLFqgMfGWh-28" vertex="1">
                    <mxGeometry y="76" width="210" height="8" as="geometry"/>
                </mxCell>
                <mxCell id="F_IcwBfwnBXLFqgMfGWh-35" value="parameters" style="html=1;align=center;spacing=0;verticalAlign=middle;strokeColor=none;fillColor=none;whiteSpace=wrap;fontStyle=2;fontSize=10;" parent="F_IcwBfwnBXLFqgMfGWh-28" vertex="1">
                    <mxGeometry y="84" width="210" height="16" as="geometry"/>
                </mxCell>
                <mxCell id="F_IcwBfwnBXLFqgMfGWh-36" value="net (N): Real" style="html=1;align=left;spacing=0;spacingLeft=10;verticalAlign=middle;strokeColor=none;fillColor=none;whiteSpace=wrap;" parent="F_IcwBfwnBXLFqgMfGWh-28" vertex="1">
                    <mxGeometry y="100" width="210" height="16" as="geometry"/>
                </mxCell>
                <mxCell id="F_IcwBfwnBXLFqgMfGWh-37" value="grossDonation (G): Real" style="html=1;align=left;spacing=0;spacingLeft=10;verticalAlign=middle;strokeColor=none;fillColor=none;whiteSpace=wrap;" parent="F_IcwBfwnBXLFqgMfGWh-28" vertex="1">
                    <mxGeometry y="116" width="210" height="16" as="geometry"/>
                </mxCell>
                <mxCell id="F_IcwBfwnBXLFqgMfGWh-38" value="fixedFee (F): Real" style="html=1;align=left;spacing=0;spacingLeft=10;verticalAlign=middle;strokeColor=none;fillColor=none;whiteSpace=wrap;" parent="F_IcwBfwnBXLFqgMfGWh-28" vertex="1">
                    <mxGeometry y="132" width="210" height="16" as="geometry"/>
                </mxCell>
                <mxCell id="F_IcwBfwnBXLFqgMfGWh-40" value="payRate (PR): %" style="html=1;align=left;spacing=0;spacingLeft=10;verticalAlign=middle;strokeColor=none;fillColor=none;whiteSpace=wrap;" parent="F_IcwBfwnBXLFqgMfGWh-28" vertex="1">
                    <mxGeometry y="148" width="210" height="16" as="geometry"/>
                </mxCell>
                <mxCell id="F_IcwBfwnBXLFqgMfGWh-42" value="platformRate (PlatR): %" style="html=1;align=left;spacing=0;spacingLeft=10;verticalAlign=middle;strokeColor=none;fillColor=none;whiteSpace=wrap;" parent="F_IcwBfwnBXLFqgMfGWh-28" vertex="1">
                    <mxGeometry y="164" width="210" height="16" as="geometry"/>
                </mxCell>
                <mxCell id="F_IcwBfwnBXLFqgMfGWh-43" value="" style="fontStyle=1;align=center;verticalAlign=middle;childLayout=stackLayout;horizontal=1;horizontalStack=0;resizeParent=1;resizeParentMax=0;resizeLast=0;marginBottom=0;" parent="1" vertex="1">
                    <mxGeometry x="-1390" y="1440" width="200" height="148" as="geometry"/>
                </mxCell>
                <mxCell id="F_IcwBfwnBXLFqgMfGWh-44" value="&amp;lt;&amp;lt;constraint&amp;gt;&amp;gt;" style="html=1;align=center;spacing=0;verticalAlign=middle;strokeColor=none;fillColor=none;whiteSpace=wrap;" parent="F_IcwBfwnBXLFqgMfGWh-43" vertex="1">
                    <mxGeometry width="200" height="18" as="geometry"/>
                </mxCell>
                <mxCell id="F_IcwBfwnBXLFqgMfGWh-45" value="Progress" style="html=1;align=center;spacing=0;verticalAlign=middle;strokeColor=none;fillColor=none;whiteSpace=wrap;fontStyle=1;" parent="F_IcwBfwnBXLFqgMfGWh-43" vertex="1">
                    <mxGeometry y="18" width="200" height="18" as="geometry"/>
                </mxCell>
                <mxCell id="F_IcwBfwnBXLFqgMfGWh-46" value="" style="line;strokeWidth=0.25;fillColor=none;align=left;verticalAlign=middle;spacingTop=-1;spacingLeft=3;spacingRight=3;rotatable=0;labelPosition=right;points=[];portConstraint=eastwest;" parent="F_IcwBfwnBXLFqgMfGWh-43" vertex="1">
                    <mxGeometry y="36" width="200" height="8" as="geometry"/>
                </mxCell>
                <mxCell id="F_IcwBfwnBXLFqgMfGWh-47" value="constraints" style="html=1;align=center;spacing=0;verticalAlign=middle;strokeColor=none;fillColor=none;whiteSpace=wrap;fontStyle=2;fontSize=10;" parent="F_IcwBfwnBXLFqgMfGWh-43" vertex="1">
                    <mxGeometry y="44" width="200" height="16" as="geometry"/>
                </mxCell>
                <mxCell id="F_IcwBfwnBXLFqgMfGWh-48" value="{ PP = (RA / TA) × 100 }" style="html=1;align=left;spacing=0;spacingLeft=10;verticalAlign=middle;strokeColor=none;fillColor=none;whiteSpace=wrap;" parent="F_IcwBfwnBXLFqgMfGWh-43" vertex="1">
                    <mxGeometry y="60" width="200" height="16" as="geometry"/>
                </mxCell>
                <mxCell id="F_IcwBfwnBXLFqgMfGWh-49" value="" style="line;strokeWidth=0.25;fillColor=none;align=left;verticalAlign=middle;spacingTop=-1;spacingLeft=3;spacingRight=3;rotatable=0;labelPosition=right;points=[];portConstraint=eastwest;" parent="F_IcwBfwnBXLFqgMfGWh-43" vertex="1">
                    <mxGeometry y="76" width="200" height="8" as="geometry"/>
                </mxCell>
                <mxCell id="F_IcwBfwnBXLFqgMfGWh-50" value="parameters" style="html=1;align=center;spacing=0;verticalAlign=middle;strokeColor=none;fillColor=none;whiteSpace=wrap;fontStyle=2;fontSize=10;" parent="F_IcwBfwnBXLFqgMfGWh-43" vertex="1">
                    <mxGeometry y="84" width="200" height="16" as="geometry"/>
                </mxCell>
                <mxCell id="F_IcwBfwnBXLFqgMfGWh-52" value="&lt;div&gt;raisedAmount(RA):&amp;nbsp; Money&lt;/div&gt;" style="html=1;align=left;spacing=0;spacingLeft=10;verticalAlign=middle;strokeColor=none;fillColor=none;whiteSpace=wrap;" parent="F_IcwBfwnBXLFqgMfGWh-43" vertex="1">
                    <mxGeometry y="100" width="200" height="16" as="geometry"/>
                </mxCell>
                <mxCell id="F_IcwBfwnBXLFqgMfGWh-53" value="targetedAmount(TA): Money" style="html=1;align=left;spacing=0;spacingLeft=10;verticalAlign=middle;strokeColor=none;fillColor=none;whiteSpace=wrap;" parent="F_IcwBfwnBXLFqgMfGWh-43" vertex="1">
                    <mxGeometry y="116" width="200" height="16" as="geometry"/>
                </mxCell>
                <mxCell id="F_IcwBfwnBXLFqgMfGWh-65" value="&lt;span style=&quot;text-align: center;&quot;&gt;progressPercentage(PP): %&lt;/span&gt;" style="html=1;align=left;spacing=0;spacingLeft=10;verticalAlign=middle;strokeColor=none;fillColor=none;whiteSpace=wrap;" parent="F_IcwBfwnBXLFqgMfGWh-43" vertex="1">
                    <mxGeometry y="132" width="200" height="16" as="geometry"/>
                </mxCell>
                <mxCell id="F_IcwBfwnBXLFqgMfGWh-54" value="" style="fontStyle=1;align=center;verticalAlign=middle;childLayout=stackLayout;horizontal=1;horizontalStack=0;resizeParent=1;resizeParentMax=0;resizeLast=0;marginBottom=0;" parent="1" vertex="1">
                    <mxGeometry x="-1650" y="1350" width="200" height="132" as="geometry"/>
                </mxCell>
                <mxCell id="F_IcwBfwnBXLFqgMfGWh-55" value="&amp;lt;&amp;lt;constraint&amp;gt;&amp;gt;" style="html=1;align=center;spacing=0;verticalAlign=middle;strokeColor=none;fillColor=none;whiteSpace=wrap;" parent="F_IcwBfwnBXLFqgMfGWh-54" vertex="1">
                    <mxGeometry width="200" height="18" as="geometry"/>
                </mxCell>
                <mxCell id="F_IcwBfwnBXLFqgMfGWh-56" value="Fulfillment" style="html=1;align=center;spacing=0;verticalAlign=middle;strokeColor=none;fillColor=none;whiteSpace=wrap;fontStyle=1;" parent="F_IcwBfwnBXLFqgMfGWh-54" vertex="1">
                    <mxGeometry y="18" width="200" height="18" as="geometry"/>
                </mxCell>
                <mxCell id="F_IcwBfwnBXLFqgMfGWh-57" value="" style="line;strokeWidth=0.25;fillColor=none;align=left;verticalAlign=middle;spacingTop=-1;spacingLeft=3;spacingRight=3;rotatable=0;labelPosition=right;points=[];portConstraint=eastwest;" parent="F_IcwBfwnBXLFqgMfGWh-54" vertex="1">
                    <mxGeometry y="36" width="200" height="8" as="geometry"/>
                </mxCell>
                <mxCell id="F_IcwBfwnBXLFqgMfGWh-58" value="constraints" style="html=1;align=center;spacing=0;verticalAlign=middle;strokeColor=none;fillColor=none;whiteSpace=wrap;fontStyle=2;fontSize=10;" parent="F_IcwBfwnBXLFqgMfGWh-54" vertex="1">
                    <mxGeometry y="44" width="200" height="16" as="geometry"/>
                </mxCell>
                <mxCell id="F_IcwBfwnBXLFqgMfGWh-59" value="{ RA &amp;gt;= RA }" style="html=1;align=left;spacing=0;spacingLeft=10;verticalAlign=middle;strokeColor=none;fillColor=none;whiteSpace=wrap;" parent="F_IcwBfwnBXLFqgMfGWh-54" vertex="1">
                    <mxGeometry y="60" width="200" height="16" as="geometry"/>
                </mxCell>
                <mxCell id="F_IcwBfwnBXLFqgMfGWh-60" value="" style="line;strokeWidth=0.25;fillColor=none;align=left;verticalAlign=middle;spacingTop=-1;spacingLeft=3;spacingRight=3;rotatable=0;labelPosition=right;points=[];portConstraint=eastwest;" parent="F_IcwBfwnBXLFqgMfGWh-54" vertex="1">
                    <mxGeometry y="76" width="200" height="8" as="geometry"/>
                </mxCell>
                <mxCell id="F_IcwBfwnBXLFqgMfGWh-61" value="parameters" style="html=1;align=center;spacing=0;verticalAlign=middle;strokeColor=none;fillColor=none;whiteSpace=wrap;fontStyle=2;fontSize=10;" parent="F_IcwBfwnBXLFqgMfGWh-54" vertex="1">
                    <mxGeometry y="84" width="200" height="16" as="geometry"/>
                </mxCell>
                <mxCell id="F_IcwBfwnBXLFqgMfGWh-62" value="&lt;div&gt;raisedAmount(RA):&amp;nbsp; Money&lt;/div&gt;" style="html=1;align=left;spacing=0;spacingLeft=10;verticalAlign=middle;strokeColor=none;fillColor=none;whiteSpace=wrap;" parent="F_IcwBfwnBXLFqgMfGWh-54" vertex="1">
                    <mxGeometry y="100" width="200" height="16" as="geometry"/>
                </mxCell>
                <mxCell id="F_IcwBfwnBXLFqgMfGWh-64" value="&lt;div&gt;targetedAmount(TA): Money&lt;/div&gt;" style="html=1;align=left;spacing=0;spacingLeft=10;verticalAlign=middle;strokeColor=none;fillColor=none;whiteSpace=wrap;" parent="F_IcwBfwnBXLFqgMfGWh-54" vertex="1">
                    <mxGeometry y="116" width="200" height="16" as="geometry"/>
                </mxCell>
                <mxCell id="F_IcwBfwnBXLFqgMfGWh-67" value="&amp;lt;&amp;lt;use&amp;gt;&amp;gt;" style="edgeStyle=none;html=1;endArrow=open;endSize=12;dashed=1;verticalAlign=bottom;rounded=0;exitX=0;exitY=0.25;exitDx=0;exitDy=0;entryX=1;entryY=0.25;entryDx=0;entryDy=0;" parent="1" source="GfvtaCKNaA-bXwLxs-4Q-10" target="F_IcwBfwnBXLFqgMfGWh-32" edge="1">
                    <mxGeometry x="-0.0005" y="-2" width="160" relative="1" as="geometry">
                        <mxPoint x="-560" y="1020" as="sourcePoint"/>
                        <mxPoint x="-670" y="840" as="targetPoint"/>
                        <Array as="points"/>
                        <mxPoint as="offset"/>
                    </mxGeometry>
                </mxCell>
                <mxCell id="F_IcwBfwnBXLFqgMfGWh-68" value="&amp;lt;&amp;lt;use&amp;gt;&amp;gt;" style="edgeStyle=none;html=1;endArrow=open;endSize=12;dashed=1;verticalAlign=bottom;rounded=0;exitX=0.25;exitY=1;exitDx=0;exitDy=0;entryX=0.5;entryY=0;entryDx=0;entryDy=0;" parent="1" source="GfvtaCKNaA-bXwLxs-4Q-13" target="F_IcwBfwnBXLFqgMfGWh-44" edge="1">
                    <mxGeometry x="-0.0005" y="-2" width="160" relative="1" as="geometry">
                        <mxPoint x="-1330" y="785" as="sourcePoint"/>
                        <mxPoint x="-1490" y="788" as="targetPoint"/>
                        <Array as="points">
                            <mxPoint x="-1290" y="1400"/>
                        </Array>
                        <mxPoint as="offset"/>
                    </mxGeometry>
                </mxCell>
                <mxCell id="F_IcwBfwnBXLFqgMfGWh-69" value="&amp;lt;&amp;lt;use&amp;gt;&amp;gt;" style="edgeStyle=none;html=1;endArrow=open;endSize=12;dashed=1;verticalAlign=bottom;rounded=0;exitX=0;exitY=0;exitDx=0;exitDy=0;entryX=0.5;entryY=0;entryDx=0;entryDy=0;" parent="1" source="GfvtaCKNaA-bXwLxs-4Q-13" target="F_IcwBfwnBXLFqgMfGWh-55" edge="1">
                    <mxGeometry x="-0.034" y="-9" width="160" relative="1" as="geometry">
                        <mxPoint x="-1330" y="815" as="sourcePoint"/>
                        <mxPoint x="-1500" y="1090" as="targetPoint"/>
                        <Array as="points"/>
                        <mxPoint as="offset"/>
                    </mxGeometry>
                </mxCell>
                <mxCell id="F_IcwBfwnBXLFqgMfGWh-70" value="&amp;lt;&amp;lt;use&amp;gt;&amp;gt;" style="edgeStyle=none;html=1;endArrow=open;endSize=12;dashed=1;verticalAlign=bottom;rounded=0;exitX=0;exitY=1;exitDx=0;exitDy=0;entryX=1;entryY=1;entryDx=0;entryDy=0;jumpStyle=arc;" parent="1" source="F_IcwBfwnBXLFqgMfGWh-7" target="F_IcwBfwnBXLFqgMfGWh-35" edge="1">
                    <mxGeometry x="-0.2489" y="1" width="160" relative="1" as="geometry">
                        <mxPoint x="-1330" y="815" as="sourcePoint"/>
                        <mxPoint x="-1500" y="1090" as="targetPoint"/>
                        <Array as="points"/>
                        <mxPoint as="offset"/>
                    </mxGeometry>
                </mxCell>
                <mxCell id="RrHWkAIhDm4_ag0JyUkN-3" value="depends on" style="edgeStyle=none;html=1;endArrow=open;endSize=12;dashed=1;verticalAlign=bottom;rounded=0;exitX=1;exitY=0.75;exitDx=0;exitDy=0;entryX=0.5;entryY=1;entryDx=0;entryDy=0;" edge="1" parent="1" source="OCQqDHPVg-M2ODs9NZuo-3" target="OCQqDHPVg-M2ODs9NZuo-30">
                    <mxGeometry x="-0.004" width="160" relative="1" as="geometry">
                        <mxPoint x="-870" y="554" as="sourcePoint"/>
                        <mxPoint x="-1155" y="554" as="targetPoint"/>
                        <mxPoint as="offset"/>
                        <Array as="points">
                            <mxPoint x="-540" y="567"/>
                        </Array>
                    </mxGeometry>
                </mxCell>
                <mxCell id="RrHWkAIhDm4_ag0JyUkN-4" value="&amp;lt;&amp;lt;use&amp;gt;&amp;gt;" style="edgeStyle=none;html=1;endArrow=open;endSize=12;dashed=1;verticalAlign=bottom;rounded=0;exitX=1;exitY=0;exitDx=0;exitDy=0;entryX=0.016;entryY=-0.083;entryDx=0;entryDy=0;entryPerimeter=0;" edge="1" parent="1" source="F_IcwBfwnBXLFqgMfGWh-12" target="F_IcwBfwnBXLFqgMfGWh-22">
                    <mxGeometry x="0.0351" y="-1" width="160" relative="1" as="geometry">
                        <mxPoint x="-560" y="1020" as="sourcePoint"/>
                        <mxPoint x="-670" y="900" as="targetPoint"/>
                        <Array as="points"/>
                        <mxPoint as="offset"/>
                    </mxGeometry>
                </mxCell>
                <mxCell id="81afUs7D1GKLaicGi79M-1" value="&amp;lt;&amp;lt;depends on&amp;gt;&amp;gt;" style="edgeStyle=none;html=1;endArrow=open;endSize=12;dashed=1;verticalAlign=bottom;rounded=0;exitX=1;exitY=0.25;exitDx=0;exitDy=0;entryX=0;entryY=0.75;entryDx=0;entryDy=0;" edge="1" parent="1" source="GfvtaCKNaA-bXwLxs-4Q-13" target="F_IcwBfwnBXLFqgMfGWh-13">
                    <mxGeometry x="-0.2683" y="5" width="160" relative="1" as="geometry">
                        <mxPoint x="-770" y="966" as="sourcePoint"/>
                        <mxPoint x="-910" y="1068" as="targetPoint"/>
                        <mxPoint as="offset"/>
                    </mxGeometry>
                </mxCell>
                <mxCell id="81afUs7D1GKLaicGi79M-2" value="&amp;lt;&amp;lt;use&amp;gt;&amp;gt;" style="edgeStyle=none;html=1;endArrow=open;endSize=12;dashed=1;verticalAlign=bottom;rounded=0;exitX=0;exitY=0;exitDx=0;exitDy=0;entryX=1;entryY=0.25;entryDx=0;entryDy=0;" edge="1" parent="1" source="F_IcwBfwnBXLFqgMfGWh-15" target="F_IcwBfwnBXLFqgMfGWh-38">
                    <mxGeometry x="-0.0005" y="-2" width="160" relative="1" as="geometry">
                        <mxPoint x="-1330" y="753" as="sourcePoint"/>
                        <mxPoint x="-1510" y="948" as="targetPoint"/>
                        <Array as="points"/>
                        <mxPoint as="offset"/>
                    </mxGeometry>
                </mxCell>
                <mxCell id="81afUs7D1GKLaicGi79M-3" value="&amp;lt;&amp;lt;depends on&amp;gt;&amp;gt;" style="edgeStyle=none;html=1;endArrow=open;endSize=12;dashed=1;verticalAlign=bottom;rounded=0;entryX=0.5;entryY=0;entryDx=0;entryDy=0;exitX=0.75;exitY=1;exitDx=0;exitDy=0;" edge="1" parent="1" source="GfvtaCKNaA-bXwLxs-4Q-13" target="OCQqDHPVg-M2ODs9NZuo-21">
                    <mxGeometry x="-0.004" width="160" relative="1" as="geometry">
                        <mxPoint x="-1020" y="1290" as="sourcePoint"/>
                        <mxPoint x="-1020" y="1440" as="targetPoint"/>
                        <mxPoint as="offset"/>
                    </mxGeometry>
                </mxCell>
            </root>
        </mxGraphModel>
    </diagram>
    <diagram id="x-UZ8G6LPC9GP4lzRSNs" name="Parametric">
        <mxGraphModel dx="1986" dy="530" grid="1" gridSize="10" guides="1" tooltips="1" connect="1" arrows="1" fold="1" page="1" pageScale="1" pageWidth="850" pageHeight="1100" math="0" shadow="0">
            <root>
                <mxCell id="0"/>
                <mxCell id="1" parent="0"/>
                <mxCell id="R00iqqLVmXSmhDsrdNs0-1" value="&lt;b&gt;par &lt;/b&gt;[Block]&lt;b style=&quot;background-color: initial;&quot;&gt;&amp;nbsp;&lt;/b&gt;&lt;span style=&quot;background-color: initial;&quot;&gt;Online Donation App&lt;/span&gt;&lt;div&gt;&lt;div&gt;&lt;b&gt;&lt;br&gt;&lt;/b&gt;&lt;br class=&quot;Apple-interchange-newline&quot;&gt;&lt;br&gt;&lt;br&gt;&lt;/div&gt;&lt;/div&gt;" style="html=1;shape=mxgraph.sysml.package;labelX=246;align=left;spacingLeft=10;overflow=fill;whiteSpace=wrap;recursiveResize=0;strokeColor=#1e1a1a;container=0;" parent="1" vertex="1">
                    <mxGeometry x="-70" y="349.5" width="750" height="570.5" as="geometry"/>
                </mxCell>
                <mxCell id="R00iqqLVmXSmhDsrdNs0-6" value="targetedAmount (TA): Real" style="strokeColor=inherit;fillColor=inherit;gradientColor=inherit;shape=rect;html=1;fontSize=10;verticalLabelPosition=top;verticalAlign=bottom;" parent="1" vertex="1">
                    <mxGeometry x="-10" y="430" width="20" height="20" as="geometry"/>
                </mxCell>
                <mxCell id="R00iqqLVmXSmhDsrdNs0-8" value="" style="strokeColor=inherit;fillColor=inherit;gradientColor=inherit;endArrow=none;html=1;edgeStyle=none;exitY=0.249;exitX=-0.005;entryY=0.5;entryX=1;rounded=0;exitDx=0;exitDy=0;exitPerimeter=0;" parent="1" source="R00iqqLVmXSmhDsrdNs0-2" target="R00iqqLVmXSmhDsrdNs0-6" edge="1">
                    <mxGeometry x="1" relative="1" as="geometry"/>
                </mxCell>
                <mxCell id="e8HLnweM-nRNZA0zBuyW-12" value="" style="strokeColor=inherit;fillColor=inherit;gradientColor=inherit;endArrow=none;html=1;edgeStyle=none;exitY=0.749;exitX=-0.005;entryY=1;entryX=0.5;rounded=0;entryDx=0;entryDy=0;exitDx=0;exitDy=0;exitPerimeter=0;" parent="1" source="e8HLnweM-nRNZA0zBuyW-9" target="R00iqqLVmXSmhDsrdNs0-6" edge="1">
                    <mxGeometry x="1" relative="1" as="geometry">
                        <mxPoint x="290" y="375" as="sourcePoint"/>
                        <mxPoint x="120" y="375" as="targetPoint"/>
                        <Array as="points">
                            <mxPoint y="670"/>
                        </Array>
                    </mxGeometry>
                </mxCell>
                <mxCell id="1ZVjk0CyKFcGFLKC9GwF-28" value="grossDonation(G): Real" style="strokeColor=inherit;fillColor=inherit;gradientColor=inherit;shape=rect;html=1;fontSize=10;verticalLabelPosition=top;verticalAlign=bottom;direction=south;" parent="1" vertex="1">
                    <mxGeometry x="340" y="880" width="20" height="20" as="geometry"/>
                </mxCell>
                <mxCell id="1ZVjk0CyKFcGFLKC9GwF-30" value="" style="strokeColor=inherit;fillColor=inherit;gradientColor=inherit;endArrow=none;html=1;edgeStyle=none;entryY=0.5;entryX=0;rounded=0;entryDx=0;entryDy=0;" parent="1" source="1ZVjk0CyKFcGFLKC9GwF-21" target="1ZVjk0CyKFcGFLKC9GwF-28" edge="1">
                    <mxGeometry x="1" relative="1" as="geometry">
                        <mxPoint x="212" y="729" as="sourcePoint"/>
                        <mxPoint y="580" as="targetPoint"/>
                        <Array as="points"/>
                    </mxGeometry>
                </mxCell>
                <mxCell id="1ZVjk0CyKFcGFLKC9GwF-33" value="payRate(PR): %" style="strokeColor=inherit;fillColor=inherit;gradientColor=inherit;shape=rect;html=1;fontSize=10;verticalLabelPosition=top;verticalAlign=bottom;direction=north;" parent="1" vertex="1">
                    <mxGeometry x="32" y="730" width="20" height="20" as="geometry"/>
                </mxCell>
                <mxCell id="1ZVjk0CyKFcGFLKC9GwF-34" value="" style="strokeColor=inherit;fillColor=inherit;gradientColor=inherit;endArrow=none;html=1;edgeStyle=none;rounded=0;exitX=0.001;exitY=0.258;exitDx=0;exitDy=0;exitPerimeter=0;entryX=0.5;entryY=1;entryDx=0;entryDy=0;" parent="1" source="bA_Uwz-lGlLVcjLkD_Mj-1" target="1ZVjk0CyKFcGFLKC9GwF-33" edge="1">
                    <mxGeometry x="1" relative="1" as="geometry">
                        <mxPoint x="460.0000000000002" y="650" as="sourcePoint"/>
                        <mxPoint x="-20" y="717" as="targetPoint"/>
                        <Array as="points"/>
                    </mxGeometry>
                </mxCell>
                <mxCell id="R00iqqLVmXSmhDsrdNs0-2" value="PP: ProgressPct&amp;nbsp;&lt;br&gt;&lt;div&gt;&lt;span style=&quot;font-weight: normal;&quot;&gt;{ PP&lt;span style=&quot;background-color: transparent; color: light-dark(rgb(0, 0, 0), rgb(255, 255, 255));&quot;&gt;= (&lt;/span&gt;&lt;/span&gt;&lt;span style=&quot;font-weight: 400; background-color: initial;&quot;&gt;RA / TA&lt;/span&gt;&lt;span style=&quot;background-color: transparent; color: light-dark(rgb(0, 0, 0), rgb(255, 255, 255)); font-weight: normal;&quot;&gt;) * 100 }&lt;/span&gt;&lt;/div&gt;" style="strokeColor=inherit;fillColor=inherit;gradientColor=inherit;html=1;shape=mxgraph.sysml.paramDgm;fontStyle=1;whiteSpace=wrap;align=center;" parent="1" vertex="1">
                    <mxGeometry x="450" y="416" width="190" height="100" as="geometry"/>
                </mxCell>
                <mxCell id="R00iqqLVmXSmhDsrdNs0-3" value="TA" style="html=1;resizable=0;align=left;verticalAlign=middle;labelPosition=left;verticalLabelPosition=middle;labelBackgroundColor=none;fontSize=10;spacingLeft=22;fontStyle=1;" parent="R00iqqLVmXSmhDsrdNs0-2" connectable="0" vertex="1">
                    <mxGeometry y="25" as="geometry"/>
                </mxCell>
                <mxCell id="R00iqqLVmXSmhDsrdNs0-4" value="RA" style="html=1;resizable=0;align=left;verticalAlign=middle;labelPosition=left;verticalLabelPosition=middle;labelBackgroundColor=none;fontSize=10;spacingLeft=22;fontStyle=1;" parent="R00iqqLVmXSmhDsrdNs0-2" connectable="0" vertex="1">
                    <mxGeometry y="75" as="geometry"/>
                </mxCell>
                <mxCell id="e8HLnweM-nRNZA0zBuyW-9" value="FF: Fulfillment&lt;br&gt;&lt;div&gt;&lt;span style=&quot;font-weight: normal;&quot;&gt;{ RA &amp;gt;= TA&amp;nbsp;&lt;/span&gt;&lt;span style=&quot;background-color: transparent; color: light-dark(rgb(0, 0, 0), rgb(255, 255, 255)); font-weight: normal;&quot;&gt;}&lt;/span&gt;&lt;/div&gt;" style="strokeColor=inherit;fillColor=inherit;gradientColor=inherit;html=1;shape=mxgraph.sysml.paramDgm;fontStyle=1;whiteSpace=wrap;align=center;container=0;" parent="1" vertex="1">
                    <mxGeometry x="70" y="595" width="150" height="100" as="geometry"/>
                </mxCell>
                <mxCell id="bA_Uwz-lGlLVcjLkD_Mj-1" value="N: FeeCalc&lt;br&gt;&lt;div&gt;&lt;span style=&quot;font-weight: 400; text-align: left;&quot;&gt;{ N&lt;/span&gt;&lt;span style=&quot;font-weight: 400; text-align: left; background-color: initial;&quot;&gt;&amp;nbsp;= G − (G × PlatR) − (G × PR + F)&amp;nbsp;&lt;/span&gt;&lt;span style=&quot;font-weight: 400; text-align: left;&quot;&gt;}&lt;/span&gt;&lt;br&gt;&lt;/div&gt;" style="strokeColor=inherit;fillColor=inherit;gradientColor=inherit;html=1;shape=mxgraph.sysml.paramDgm;fontStyle=1;whiteSpace=wrap;align=center;" parent="1" vertex="1">
                    <mxGeometry x="220" y="712" width="280" height="110" as="geometry"/>
                </mxCell>
                <mxCell id="bA_Uwz-lGlLVcjLkD_Mj-2" value="PR" style="html=1;resizable=0;align=left;verticalAlign=middle;labelPosition=left;verticalLabelPosition=middle;labelBackgroundColor=none;fontSize=10;spacingLeft=22;fontStyle=1;" parent="bA_Uwz-lGlLVcjLkD_Mj-1" connectable="0" vertex="1">
                    <mxGeometry y="27.500000000000004" as="geometry"/>
                </mxCell>
                <mxCell id="bA_Uwz-lGlLVcjLkD_Mj-3" value="PlatR" style="html=1;resizable=0;align=left;verticalAlign=middle;labelPosition=left;verticalLabelPosition=middle;labelBackgroundColor=none;fontSize=10;spacingLeft=22;fontStyle=1;" parent="bA_Uwz-lGlLVcjLkD_Mj-1" connectable="0" vertex="1">
                    <mxGeometry y="82.5" as="geometry"/>
                </mxCell>
                <mxCell id="1ZVjk0CyKFcGFLKC9GwF-21" value="&lt;div&gt;&lt;br&gt;&lt;/div&gt;&lt;div&gt;&lt;br&gt;&lt;/div&gt;" style="strokeColor=inherit;fillColor=inherit;gradientColor=inherit;shape=rect;html=1;fontSize=10;verticalLabelPosition=top;verticalAlign=bottom;direction=south;" parent="bA_Uwz-lGlLVcjLkD_Mj-1" vertex="1">
                    <mxGeometry x="120" y="90" width="20" height="20" as="geometry"/>
                </mxCell>
                <mxCell id="1ZVjk0CyKFcGFLKC9GwF-22" value="&lt;b&gt;G&lt;/b&gt;" style="text;strokeColor=none;align=center;fillColor=none;html=1;verticalAlign=middle;whiteSpace=wrap;rounded=0;" parent="bA_Uwz-lGlLVcjLkD_Mj-1" vertex="1">
                    <mxGeometry x="120" y="75.25" width="20" height="14.5" as="geometry"/>
                </mxCell>
                <mxCell id="s9yaTgiNy_LO16faBQ0r-15" value="" style="strokeColor=inherit;fillColor=inherit;gradientColor=inherit;shape=rect;html=1;fontSize=10;verticalLabelPosition=top;verticalAlign=bottom;direction=south;" parent="bA_Uwz-lGlLVcjLkD_Mj-1" vertex="1">
                    <mxGeometry x="260" y="45.5" width="20" height="20" as="geometry"/>
                </mxCell>
                <mxCell id="s9yaTgiNy_LO16faBQ0r-26" value="&lt;b&gt;F&lt;/b&gt;" style="text;strokeColor=none;align=center;fillColor=none;html=1;verticalAlign=middle;whiteSpace=wrap;rounded=0;" parent="bA_Uwz-lGlLVcjLkD_Mj-1" vertex="1">
                    <mxGeometry x="260" y="27.5" width="20" height="21" as="geometry"/>
                </mxCell>
                <mxCell id="s-m0p0qiADZu-J-FSz7Q-2" value="SD: SumDonations&lt;br&gt;&lt;div&gt;&lt;span style=&quot;font-weight: 400; text-align: left;&quot;&gt;{&amp;nbsp;&lt;/span&gt;&lt;span style=&quot;font-weight: 400; text-align: left;&quot; class=&quot;base&quot;&gt;RA&amp;nbsp;&lt;/span&gt;&lt;span style=&quot;font-weight: 400; text-align: left;&quot; class=&quot;base&quot;&gt;&lt;span class=&quot;mop op-limits&quot;&gt;&lt;span class=&quot;vlist-t vlist-t2&quot;&gt;&lt;span class=&quot;vlist-r&quot;&gt;&lt;span class=&quot;vlist&quot;&gt;&lt;span class=&quot;sizing reset-size6 size3 mtight&quot;&gt;&lt;span class=&quot;mord mtight&quot;&gt;&lt;span class=&quot;mrel mtight&quot;&gt;=&amp;nbsp;&lt;/span&gt;&lt;/span&gt;&lt;/span&gt;&lt;span class=&quot;mop op-symbol large-op&quot;&gt;∑&amp;nbsp;&lt;/span&gt;&lt;/span&gt;&lt;span class=&quot;vlist-s&quot;&gt;N[&lt;/span&gt;&lt;/span&gt;&lt;/span&gt;&lt;/span&gt;&lt;span class=&quot;mord&quot;&gt;&lt;span class=&quot;msupsub&quot;&gt;&lt;span class=&quot;vlist-t vlist-t2&quot;&gt;&lt;span class=&quot;vlist-r&quot;&gt;&lt;span class=&quot;vlist&quot;&gt;&lt;span class=&quot;sizing reset-size6 size3 mtight&quot;&gt;&lt;span class=&quot;mord mathnormal mtight&quot;&gt;i]&lt;/span&gt;&lt;/span&gt;&lt;/span&gt;&lt;span class=&quot;vlist-s&quot;&gt;​&amp;nbsp;&lt;/span&gt;&lt;/span&gt;&lt;/span&gt;&lt;/span&gt;&lt;/span&gt;&lt;/span&gt;&lt;span style=&quot;font-weight: 400; text-align: left;&quot;&gt;}&lt;/span&gt;&lt;br&gt;&lt;/div&gt;" style="strokeColor=inherit;fillColor=inherit;gradientColor=inherit;html=1;shape=mxgraph.sysml.paramDgm;fontStyle=1;whiteSpace=wrap;align=center;connectable=1;points=[];" parent="1" vertex="1">
                    <mxGeometry x="450" y="588" width="205" height="114" as="geometry"/>
                </mxCell>
                <mxCell id="s-m0p0qiADZu-J-FSz7Q-3" value="" style="html=1;resizable=0;align=left;verticalAlign=middle;labelPosition=left;verticalLabelPosition=middle;labelBackgroundColor=none;fontSize=10;spacingLeft=22;fontStyle=1;" parent="s-m0p0qiADZu-J-FSz7Q-2" connectable="0" vertex="1">
                    <mxGeometry y="25" as="geometry"/>
                </mxCell>
                <mxCell id="s-m0p0qiADZu-J-FSz7Q-4" value="" style="html=1;resizable=0;align=left;verticalAlign=middle;labelPosition=left;verticalLabelPosition=middle;labelBackgroundColor=none;fontSize=10;spacingLeft=22;fontStyle=1;" parent="s-m0p0qiADZu-J-FSz7Q-2" connectable="0" vertex="1">
                    <mxGeometry y="75" as="geometry"/>
                </mxCell>
                <mxCell id="djMAQ6mA-iFNKEDq7rxJ-29" value="" style="shape=stencil(tZT/DoIgEICfhn8bP9YDNKr3IMVkGjigrLfvFN3C1LUmm2O7O/3uEzkR464UjUQUl4gdEaUEY1ghbiexcI3MfEg+hFXiUstQcd6aSrYq9wND6VJa5bsqOyF8gHu6i/HMaA0QZbSLKh91gAml4Vn8DLCh/SuKGuDfpJd2kAxZRM+/Y3f7NGCSyDfGjvab+24Hjo1Jqg+3GZj8j2UcMkuHm/GLyKqrNXedz8rYbq7Wz/t0GKfDOiu00Jbxwli54lOoug4zvbKDCaRH9GLv/q2+5Pts+Iv1iTc=);whiteSpace=wrap;html=1;strokeWidth=0;strokeColor=none;" parent="s-m0p0qiADZu-J-FSz7Q-2" vertex="1">
                    <mxGeometry y="12" width="30" height="30" as="geometry"/>
                </mxCell>
                <mxCell id="djMAQ6mA-iFNKEDq7rxJ-35" value="&lt;b&gt;N&lt;/b&gt;" style="text;strokeColor=none;align=center;fillColor=none;html=1;verticalAlign=middle;whiteSpace=wrap;rounded=0;" parent="s-m0p0qiADZu-J-FSz7Q-2" vertex="1">
                    <mxGeometry x="20" y="75" width="20" height="20" as="geometry"/>
                </mxCell>
                <mxCell id="s9yaTgiNy_LO16faBQ0r-2" value="" style="strokeColor=inherit;fillColor=inherit;gradientColor=inherit;endArrow=none;html=1;edgeStyle=none;rounded=0;exitX=0.643;exitY=0.006;exitDx=0;exitDy=0;exitPerimeter=0;entryX=-0.001;entryY=0.757;entryDx=0;entryDy=0;entryPerimeter=0;" parent="1" source="bA_Uwz-lGlLVcjLkD_Mj-1" target="s-m0p0qiADZu-J-FSz7Q-2" edge="1">
                    <mxGeometry x="1" relative="1" as="geometry">
                        <mxPoint x="40" y="793" as="sourcePoint"/>
                        <mxPoint x="-180" y="793" as="targetPoint"/>
                        <Array as="points">
                            <mxPoint x="400" y="674"/>
                        </Array>
                    </mxGeometry>
                </mxCell>
                <mxCell id="1ZVjk0CyKFcGFLKC9GwF-31" value="platformFee (PlatF): Real" style="strokeColor=inherit;fillColor=inherit;gradientColor=inherit;shape=rect;html=1;fontSize=10;verticalLabelPosition=top;verticalAlign=bottom;direction=south;" parent="1" vertex="1">
                    <mxGeometry x="32" y="784" width="20" height="20" as="geometry"/>
                </mxCell>
                <mxCell id="1ZVjk0CyKFcGFLKC9GwF-32" value="" style="strokeColor=inherit;fillColor=inherit;gradientColor=inherit;endArrow=none;html=1;edgeStyle=none;rounded=0;exitX=0.005;exitY=0.747;exitDx=0;exitDy=0;exitPerimeter=0;entryX=0.5;entryY=0;entryDx=0;entryDy=0;" parent="1" source="bA_Uwz-lGlLVcjLkD_Mj-1" target="1ZVjk0CyKFcGFLKC9GwF-31" edge="1">
                    <mxGeometry x="1" relative="1" as="geometry">
                        <mxPoint x="220" y="783" as="sourcePoint"/>
                        <mxPoint y="783" as="targetPoint"/>
                        <Array as="points"/>
                    </mxGeometry>
                </mxCell>
                <mxCell id="s9yaTgiNy_LO16faBQ0r-16" value="fixedFee(F): Real" style="strokeColor=inherit;fillColor=inherit;gradientColor=inherit;shape=rect;html=1;fontSize=10;verticalLabelPosition=top;verticalAlign=bottom;direction=south;" parent="1" vertex="1">
                    <mxGeometry x="580" y="757" width="20" height="20" as="geometry"/>
                </mxCell>
                <mxCell id="s9yaTgiNy_LO16faBQ0r-19" value="" style="strokeColor=inherit;fillColor=inherit;gradientColor=inherit;endArrow=none;html=1;edgeStyle=none;rounded=0;exitX=0.5;exitY=1;exitDx=0;exitDy=0;entryX=1.001;entryY=0.507;entryDx=0;entryDy=0;entryPerimeter=0;" parent="1" source="s9yaTgiNy_LO16faBQ0r-16" target="bA_Uwz-lGlLVcjLkD_Mj-1" edge="1">
                    <mxGeometry x="1" relative="1" as="geometry">
                        <mxPoint x="639" y="883" as="sourcePoint"/>
                        <mxPoint x="470" y="881" as="targetPoint"/>
                        <Array as="points"/>
                    </mxGeometry>
                </mxCell>
                <mxCell id="e8HLnweM-nRNZA0zBuyW-10" value="RA" style="html=1;resizable=0;align=left;verticalAlign=middle;labelPosition=left;verticalLabelPosition=middle;labelBackgroundColor=none;fontSize=10;spacingLeft=22;fontStyle=1;" parent="1" connectable="0" vertex="1">
                    <mxGeometry x="70" y="620" as="geometry"/>
                </mxCell>
                <mxCell id="e8HLnweM-nRNZA0zBuyW-11" value="TA" style="html=1;resizable=0;align=left;verticalAlign=middle;labelPosition=left;verticalLabelPosition=middle;labelBackgroundColor=none;fontSize=10;spacingLeft=22;fontStyle=1;" parent="1" connectable="0" vertex="1">
                    <mxGeometry x="70" y="670" as="geometry"/>
                </mxCell>
                <mxCell id="djMAQ6mA-iFNKEDq7rxJ-32" value="" style="strokeColor=inherit;fillColor=inherit;gradientColor=inherit;endArrow=none;html=1;edgeStyle=none;exitY=0.747;exitX=-0.007;entryY=0.5;entryX=0;rounded=0;exitDx=0;exitDy=0;exitPerimeter=0;entryDx=0;entryDy=0;" parent="1" source="R00iqqLVmXSmhDsrdNs0-2" target="djMAQ6mA-iFNKEDq7rxJ-29" edge="1">
                    <mxGeometry x="1" relative="1" as="geometry">
                        <mxPoint x="460" y="502" as="sourcePoint"/>
                        <mxPoint x="62" y="500" as="targetPoint"/>
                        <Array as="points">
                            <mxPoint x="420" y="490"/>
                            <mxPoint x="420" y="615"/>
                        </Array>
                    </mxGeometry>
                </mxCell>
                <mxCell id="djMAQ6mA-iFNKEDq7rxJ-34" value="" style="strokeColor=inherit;fillColor=inherit;gradientColor=inherit;endArrow=none;html=1;edgeStyle=none;exitY=0.254;exitX=-0.001;entryY=0.5;entryX=0;rounded=0;exitDx=0;exitDy=0;exitPerimeter=0;entryDx=0;entryDy=0;" parent="1" source="e8HLnweM-nRNZA0zBuyW-9" target="djMAQ6mA-iFNKEDq7rxJ-29" edge="1">
                    <mxGeometry x="1" relative="1" as="geometry">
                        <mxPoint x="459" y="501" as="sourcePoint"/>
                        <mxPoint x="460" y="625" as="targetPoint"/>
                        <Array as="points">
                            <mxPoint x="50" y="620"/>
                            <mxPoint x="50" y="580"/>
                            <mxPoint x="380" y="580"/>
                            <mxPoint x="380" y="615"/>
                            <mxPoint x="420" y="615"/>
                        </Array>
                    </mxGeometry>
                </mxCell>
            </root>
        </mxGraphModel>
    </diagram>
</mxfile>
